<?xml version="1.0" encoding="UTF-8" standalone="no"?>
<!-- Generator: Adobe Illustrator 21.0.0, SVG Export Plug-In . SVG Version: 6.00 Build 0)  -->

<svg
   xmlns:dc="http://purl.org/dc/elements/1.1/"
   xmlns:cc="http://creativecommons.org/ns#"
   xmlns:rdf="http://www.w3.org/1999/02/22-rdf-syntax-ns#"
   xmlns:svg="http://www.w3.org/2000/svg"
   xmlns="http://www.w3.org/2000/svg"
   xmlns:sodipodi="http://sodipodi.sourceforge.net/DTD/sodipodi-0.dtd"
   xmlns:inkscape="http://www.inkscape.org/namespaces/inkscape"
   version="1.1"
   id="Calque_1"
   x="0px"
   y="0px"
   viewBox="0 0 418.6 272.2"
   style="enable-background:new 0 0 418.6 272.2;"
   xml:space="preserve"
   sodipodi:docname="followgt.svg"
   inkscape:version="0.92.4 (5da689c313, 2019-01-14)"><metadata
   id="metadata110"><rdf:RDF><cc:Work
       rdf:about=""><dc:format>image/svg+xml</dc:format><dc:type
         rdf:resource="http://purl.org/dc/dcmitype/StillImage" /><dc:title></dc:title></cc:Work></rdf:RDF></metadata><defs
   id="defs108" /><sodipodi:namedview
   pagecolor="#ffffff"
   bordercolor="#666666"
   borderopacity="1"
   objecttolerance="10"
   gridtolerance="10"
   guidetolerance="10"
   inkscape:pageopacity="0"
   inkscape:pageshadow="2"
   inkscape:window-width="2400"
   inkscape:window-height="1271"
   id="namedview106"
   showgrid="false"
   inkscape:zoom="7.9206462"
   inkscape:cx="160.60568"
   inkscape:cy="156.74734"
   inkscape:window-x="2391"
   inkscape:window-y="-9"
   inkscape:window-maximized="1"
   inkscape:current-layer="g93" />
<style
   type="text/css"
   id="style61">
	.st0{fill:#DF0026;}
	.st1{fill:#DF0026;stroke:#DF0026;stroke-width:4.7779;stroke-miterlimit:10;}
	.st2{fill:#FFFFFF;stroke:#030F4C;stroke-width:8.1221;stroke-linecap:round;stroke-linejoin:round;}
	.st3{fill:none;stroke:#FFFFFF;stroke-width:8.1221;stroke-linecap:round;stroke-linejoin:round;}
	.st4{fill:#030F4C;}
</style>
<g
   id="g103">
	<g
   id="g65">
		<path
   class="st0"
   d="M0,10.3h65.9V25H0L0,10.3L0,10.3z M65.4,47.1V61H14.7v33.3H0V47.1H65.4z"
   id="path63" />
	</g>
	<path
   class="st0"
   d="M179.3,0.1v94.2h-13.2V0h13.2V0.1z"
   id="path67" />
	<path
   class="st0"
   d="M318.9,28.6l20.2,65.7h-14.6l-20.2-65.7H318.9z"
   id="path69" />
	<path
   class="st0"
   d="M359.3,28.6l-20.2,65.7h-14.6l20.2-65.7H359.3z"
   id="path71" />
	<path
   class="st0"
   d="M359.3,28.6l20.2,65.7h-14.6l-20.2-65.7H359.3z"
   id="path73" />
	<path
   class="st0"
   d="M418.6,28.6l-20.2,65.7h-14.6L404,28.6H418.6z"
   id="path75" />
	<path
   class="st0"
   d="M211.4,0.1v94.2h-13.2V0h13.2V0.1z"
   id="path77" />
	<path
   class="st0"
   d="M73.1,61.5c0-10.4,3.8-19.3,11.4-26.7c7.6-7.4,16.7-11.2,27.3-11.2c10.5,0,19.5,3.8,27,11.3s11.3,16.5,11.3,27   c0,10.6-3.8,19.6-11.3,26.9c-7.6,7.4-16.8,11.1-27.5,11.1c-9.5,0-18-3.3-25.6-9.9C77.3,82.8,73.1,73.2,73.1,61.5z M84.3,61.6   c0,8.1,2.7,14.8,8.2,20.1c5.4,5.2,11.7,7.9,18.8,7.9c7.7,0,14.2-2.7,19.6-8c5.3-5.4,8-12,8-19.7c0-7.8-2.6-14.4-7.9-19.7   c-5.2-5.3-11.7-8-19.4-8c-7.7,0-14.1,2.7-19.4,8C87,47.3,84.3,53.8,84.3,61.6z"
   id="path79" />
	<path
   class="st0"
   d="M227.4,61.5c0-9.4,3.4-17.4,10.3-24.1c6.8-6.7,15-10.1,24.6-10.1c9.5,0,17.6,3.4,24.4,10.2   c6.8,6.8,10.2,14.9,10.2,24.4c0,9.6-3.4,17.7-10.2,24.3c-6.9,6.7-15.1,10-24.8,10c-8.6,0-16.3-3-23.1-8.9   C231.2,80.7,227.4,72.1,227.4,61.5z M240.3,61.6c0,6.5,2.2,11.9,6.6,16.1S256.3,84,262,84c6.2,0,11.4-2.1,15.7-6.4   s6.4-9.6,6.4-15.8c0-6.3-2.1-11.6-6.3-15.8c-4.2-4.3-9.4-6.4-15.5-6.4c-6.1,0-11.3,2.1-15.6,6.4C242.4,50.2,240.3,55.4,240.3,61.6z   "
   id="path81" />
	<path
   class="st1"
   d="M94.5,61.6c0-4.6,1.7-8.6,5.1-11.9s7.4-5,12.1-5c4.7,0,8.7,1.7,12,5s5,7.3,5,12s-1.7,8.7-5,12   c-3.4,3.3-7.5,4.9-12.2,4.9c-4.2,0-8-1.5-11.4-4.4C96.3,71.1,94.5,66.9,94.5,61.6z M99.5,61.7c0,3.6,1.2,6.6,3.6,8.9   s5.2,3.5,8.4,3.5c3.4,0,6.3-1.2,8.7-3.6c2.4-2.4,3.5-5.3,3.5-8.8s-1.2-6.4-3.5-8.8s-5.2-3.6-8.6-3.6s-6.3,1.2-8.6,3.6   C100.6,55.3,99.5,58.2,99.5,61.7z"
   id="path83" />
	<g
   id="g93">
		<path
   class="st2"
   d="M146.5,196c-3.9-4.3-6.7-33.4-44.8-43.2c-18.4-4.7-0.6-23.2,22-14.8L108,77.9c0,0-2.3-9.9,6.6-12.2    c8.9-2.3,11.9,5.5,12.2,6.5c0.2,0.9,7.1,27.2,7.1,27.2s1.3-7.3,7.6-9c6.3-1.6,10.2,2.8,11.6,7.9c-1.2-4.7,13.2-14.2,19.8,1    c3-6.7,15-8.4,17.3,0.6c1.7,6.4,4.3,11.4,7.1,28.6"
   id="path85" />

		<line
   class="st3"
   x1="153"
   y1="98.2"
   x2="156.9"
   y2="113.4"
   id="line89"
   style="stroke:#030f4c;stroke-opacity:1" />
		<line
   class="st3"
   x1="172.8"
   y1="99.2"
   x2="175.7"
   y2="110.2"
   id="line91"
   style="stroke:#030f4c;stroke-opacity:1" />
	</g>
	<g
   id="g97">
		<path
   class="st4"
   d="M287.2,251.7c-13.6,11-40.8,20.5-63.2,20.5c-43.3,0-78.1-28-78.1-75.2c0-47.6,34.7-75.7,78.1-75.7    c23.7,0,42.9,8,57.6,19.6L265,168.3c-11-8.6-24.1-13.6-40.3-13.6c-23.5,0-41.4,15.3-41.4,42.3c0,26.5,17.9,41.8,43.1,41.8    c9.5,0,19-2.4,26.5-6.3v-21.6h-35.1v-27.6h69.4V251.7L287.2,251.7z"
   id="path95" />
	</g>
	<g
   id="g101">
		<path
   class="st4"
   d="M371.4,155.1V270h-36.2V155.1h-45.1v-31.7h125.1v31.7H371.4z"
   id="path99" />
	</g>
<line
   class="st3"
   x1="133.8"
   y1="99.3"
   x2="138.2"
   y2="115.9"
   id="line87"
   style="enable-background:new 0 0 418.60000000000002274 272.19999999999998863;fill:#030f4c;fill-opacity:1;stroke:#030f4c;stroke-opacity:1" /></g>
</svg>
