<?xml version="1.0" encoding="UTF-8" standalone="no"?>
<!-- Generator: Adobe Illustrator 21.0.0, SVG Export Plug-In . SVG Version: 6.00 Build 0)  -->

<svg
   xmlns:dc="http://purl.org/dc/elements/1.1/"
   xmlns:cc="http://creativecommons.org/ns#"
   xmlns:rdf="http://www.w3.org/1999/02/22-rdf-syntax-ns#"
   xmlns:svg="http://www.w3.org/2000/svg"
   xmlns="http://www.w3.org/2000/svg"
   xmlns:sodipodi="http://sodipodi.sourceforge.net/DTD/sodipodi-0.dtd"
   xmlns:inkscape="http://www.inkscape.org/namespaces/inkscape"
   version="1.1"
   id="Calque_1"
   x="0px"
   y="0px"
   viewBox="0 0 135 135"
   xml:space="preserve"
   sodipodi:docname="icon.svg"
   inkscape:export-filename="C:\Users\a.bounader\Projects\WiiStockMobile\resources\icon.png"
   inkscape:export-xdpi="677.95862"
   inkscape:export-ydpi="677.95862"
   inkscape:version="0.92.4 (5da689c313, 2019-01-14)"><metadata
   id="metadata51"><rdf:RDF><cc:Work
       rdf:about=""><dc:format>image/svg+xml</dc:format><dc:type
         rdf:resource="http://purl.org/dc/dcmitype/StillImage" /></cc:Work></rdf:RDF></metadata><defs
   id="defs49" /><sodipodi:namedview
   pagecolor="#ffffff"
   bordercolor="#666666"
   borderopacity="1"
   objecttolerance="10"
   gridtolerance="10"
   guidetolerance="10"
   inkscape:pageopacity="0"
   inkscape:pageshadow="2"
   inkscape:window-width="2400"
   inkscape:window-height="1271"
   id="namedview47"
   showgrid="false"
   inkscape:zoom="3.4705882"
   inkscape:cx="-100.68644"
   inkscape:cy="74.538508"
   inkscape:window-x="2391"
   inkscape:window-y="-9"
   inkscape:window-maximized="1"
   inkscape:current-layer="Calque_1" />
<style
   type="text/css"
   id="style2">
	.st0{fill:#DF0026;}
	.st1{fill:#DF0026;stroke:#DF0026;stroke-width:1.1938;stroke-miterlimit:10;}
	.st2{fill:#030F4C;stroke:#FFFFFF;stroke-width:2.0294;stroke-linecap:round;stroke-linejoin:round;}
	.st3{fill:none;stroke:#FFFFFF;stroke-width:2.0294;stroke-linecap:round;stroke-linejoin:round;}
	.st4{fill:#FFFFFF;}
</style>
<g
   inkscape:groupmode="layer"
   id="layer2"
   inkscape:label="Layer 2"
   style="display:inline"><g
     inkscape:groupmode="layer"
     id="layer1"
     inkscape:label="Layer 1"
     style="display:inline" /><rect
     id="rect3758"
     width="135"
     height="135"
     x="0"
     y="0"
     style="fill:#030f4c;fill-opacity:1;stroke-width:0.89680612"
     ry="21.581358"
     rx="21.581358" /></g><g
   id="g44"
   transform="translate(15.2,33.5)">
	<g
   id="g6">
		<path
   class="st0"
   d="M 0,2.5 H 16.5 V 6.2 H 0 Z m 16.3,9.2 v 3.5 H 3.6 v 8.3 H 0 V 11.7 Z"
   id="path4"
   inkscape:connector-curvature="0"
   style="fill:#df0026" />
	</g>
	<path
   class="st0"
   d="M 44.8,0 V 23.6 H 41.5 V 0 Z"
   id="path8"
   inkscape:connector-curvature="0"
   style="fill:#df0026" />
	<path
   class="st0"
   d="m 79.7,7.1 5,16.4 H 81 L 76,7.1 Z"
   id="path10"
   inkscape:connector-curvature="0"
   style="fill:#df0026" />
	<path
   class="st0"
   d="m 89.8,7.1 -5,16.4 h -3.7 l 5,-16.4 z"
   id="path12"
   inkscape:connector-curvature="0"
   style="fill:#df0026" />
	<path
   class="st0"
   d="m 89.8,7.1 5,16.4 h -3.7 l -5,-16.4 z"
   id="path14"
   inkscape:connector-curvature="0"
   style="fill:#df0026" />
	<path
   class="st0"
   d="m 104.6,7.1 -5,16.4 h -3.7 l 5,-16.4 z"
   id="path16"
   inkscape:connector-curvature="0"
   style="fill:#df0026" />
	<path
   class="st0"
   d="M 52.8,0 V 23.6 H 49.5 V 0 Z"
   id="path18"
   inkscape:connector-curvature="0"
   style="fill:#df0026" />
	<path
   class="st0"
   d="m 18.3,15.3 c 0,-2.6 0.9,-4.8 2.8,-6.7 1.9,-1.9 4.2,-2.8 6.8,-2.8 2.6,0 4.9,0.9 6.7,2.8 1.9,1.9 2.8,4.1 2.8,6.8 0,2.6 -0.9,4.9 -2.8,6.7 -1.9,1.9 -4.2,2.8 -6.9,2.8 -2.4,0 -4.5,-0.8 -6.4,-2.5 -2,-1.8 -3,-4.1 -3,-7.1 z m 2.8,0 c 0,2 0.7,3.7 2,5 1.4,1.3 2.9,2 4.7,2 1.9,0 3.6,-0.7 4.9,-2 1.3,-1.3 2,-3 2,-4.9 0,-2 -0.7,-3.6 -2,-4.9 -1.3,-1.3 -2.9,-2 -4.8,-2 -1.9,0 -3.5,0.7 -4.8,2 -1.4,1.3 -2,2.9 -2,4.8 z"
   id="path20"
   inkscape:connector-curvature="0"
   style="fill:#df0026" />
	<path
   class="st0"
   d="m 56.8,15.3 c 0,-2.3 0.9,-4.3 2.6,-6 1.7,-1.7 3.8,-2.5 6.2,-2.5 2.4,0 4.4,0.8 6.1,2.5 1.7,1.7 2.5,3.7 2.5,6.1 0,2.4 -0.9,4.4 -2.6,6.1 -1.7,1.7 -3.8,2.5 -6.2,2.5 -2.1,0 -4.1,-0.7 -5.8,-2.2 -1.8,-1.7 -2.8,-3.8 -2.8,-6.5 z m 3.2,0.1 c 0,1.6 0.5,3 1.6,4 1.1,1.1 2.3,1.6 3.8,1.6 1.5,0 2.9,-0.5 3.9,-1.6 1.1,-1.1 1.6,-2.4 1.6,-4 0,-1.6 -0.5,-2.9 -1.6,-4 -1,-1.1 -2.3,-1.6 -3.9,-1.6 -1.5,0 -2.8,0.5 -3.9,1.6 -0.9,1.1 -1.5,2.4 -1.5,4 z"
   id="path22"
   inkscape:connector-curvature="0"
   style="fill:#df0026" />
	<path
   class="st1"
   d="m 23.6,15.4 c 0,-1.2 0.4,-2.1 1.3,-3 0.8,-0.8 1.9,-1.2 3,-1.2 1.2,0 2.2,0.4 3,1.3 0.8,0.8 1.3,1.8 1.3,3 0,1.2 -0.4,2.2 -1.3,3 -0.8,0.8 -1.9,1.2 -3.1,1.2 -1.1,0 -2,-0.4 -2.8,-1.1 -0.9,-0.9 -1.4,-1.9 -1.4,-3.2 z m 1.3,0 c 0,0.9 0.3,1.6 0.9,2.2 0.6,0.6 1.3,0.9 2.1,0.9 0.9,0 1.6,-0.3 2.2,-0.9 0.6,-0.6 0.9,-1.3 0.9,-2.2 0,-0.9 -0.3,-1.6 -0.9,-2.2 -0.6,-0.6 -1.3,-0.9 -2.2,-0.9 -0.9,0 -1.6,0.3 -2.2,0.9 -0.6,0.6 -0.8,1.3 -0.8,2.2 z"
   id="path24"
   inkscape:connector-curvature="0"
   style="fill:#df0026;stroke:#df0026;stroke-width:1.19379997;stroke-miterlimit:10" />
	<g
   id="g34">
		<path
   class="st2"
   d="m 36.6,48.9 c -1,-1.1 -1.7,-8.4 -11.2,-10.8 -4.6,-1.2 -0.2,-5.8 5.5,-3.7 L 27,19.4 c 0,0 -0.6,-2.5 1.6,-3 2.2,-0.6 3,1.4 3,1.6 0.1,0.2 1.8,6.8 1.8,6.8 0,0 0.3,-1.8 1.9,-2.2 1.6,-0.4 2.6,0.7 2.9,2 -0.3,-1.2 3.3,-3.5 4.9,0.2 0.8,-1.7 3.7,-2.1 4.3,0.2 0.4,1.6 1.1,2.9 1.8,7.1"
   id="path26"
   inkscape:connector-curvature="0"
   style="fill:#030f4c;stroke:#ffffff;stroke-width:2.02940011;stroke-linecap:round;stroke-linejoin:round" />
		<line
   class="st3"
   x1="33.400002"
   y1="24.799999"
   x2="34.5"
   y2="28.9"
   id="line28"
   style="fill:none;stroke:#ffffff;stroke-width:2.02940011;stroke-linecap:round;stroke-linejoin:round" />
		<line
   class="st3"
   x1="38.200001"
   y1="24.5"
   x2="39.200001"
   y2="28.299999"
   id="line30"
   style="fill:none;stroke:#ffffff;stroke-width:2.02940011;stroke-linecap:round;stroke-linejoin:round" />
		<line
   class="st3"
   x1="43.200001"
   y1="24.700001"
   x2="43.900002"
   y2="27.5"
   id="line32"
   style="fill:none;stroke:#ffffff;stroke-width:2.02940011;stroke-linecap:round;stroke-linejoin:round" />
	</g>
	<g
   id="g38">
		<path
   class="st4"
   d="M 71.8,62.9 C 68.4,65.6 61.6,68 56,68 45.2,68 36.5,61 36.5,49.2 36.5,37.3 45.2,30.3 56,30.3 c 5.9,0 10.7,2 14.4,4.9 L 66.3,42 c -2.7,-2.2 -6,-3.4 -10.1,-3.4 -5.9,0 -10.3,3.8 -10.3,10.6 0,6.6 4.5,10.5 10.8,10.5 2.4,0 4.7,-0.6 6.6,-1.6 v -5.4 h -8.8 v -6.9 h 17.3 z"
   id="path36"
   inkscape:connector-curvature="0"
   style="fill:#ffffff" />
	</g>
	<g
   id="g42">
		<path
   class="st4"
   d="M 92.8,38.7 V 67.4 H 83.7 V 38.7 H 72.4 v -7.9 h 31.2 v 7.9 z"
   id="path40"
   inkscape:connector-curvature="0"
   style="fill:#ffffff" />
	</g>
</g>
</svg>