<?xml version="1.0" encoding="UTF-8"?>
<svg id="Calque_1" data-name="Calque 1" xmlns="http://www.w3.org/2000/svg" viewBox="0 0 108 99.23">
  <defs>
    <style>
      .cls-1 {
        fill: #d76433;
      }
    </style>
  </defs>
  <path class="cls-1" d="m3.94,15.51c-1.1,0-2,.9-2,2v51.79c0,1.1.9,2,2,2h8.29c-.01.23-.04.46-.04.7,0,6.46,5.25,11.71,11.71,11.71s11.71-5.25,11.71-11.71c0-.24-.02-.47-.04-.7h40.31c-.01.23-.04.46-.04.7,0,6.46,5.25,11.71,11.71,11.71s11.71-5.25,11.71-11.71c0-.24-.02-.47-.04-.7h4.83c1.1,0,2-.9,2-2v-25.9s-.01-.08-.01-.13c0-.05,0-.1-.01-.14-.02-.14-.05-.28-.1-.41,0-.02-.01-.05-.02-.07-.06-.16-.15-.3-.25-.43,0-.01-.01-.03-.02-.04l-20.01-25.9c-.38-.49-.96-.78-1.58-.78H3.94Zm19.96,64.2c-4.25,0-7.71-3.46-7.71-7.71s3.46-7.71,7.71-7.71,7.71,3.46,7.71,7.71-3.46,7.71-7.71,7.71Zm44.94-12.41h-34.22s0,0,0,0c-1.81-4.12-5.93-7.01-10.72-7.01s-8.91,2.89-10.72,7.01c0,0,0,0,0,0h-7.24V19.51h62.9v47.79Zm4-47.79h10.24l16.92,21.9h-27.16v-21.9Zm14.72,60.2c-4.25,0-7.71-3.46-7.71-7.71s3.46-7.71,7.71-7.71,7.71,3.46,7.71,7.71-3.46,7.71-7.71,7.71Zm-14.72-34.3h29.23v21.9h-3.79s0,0,0,0c-1.81-4.12-5.93-7.01-10.72-7.01s-8.91,2.89-10.72,7.01h0s-4,0-4,0"/>
</svg>