<?xml version="1.0" encoding="UTF-8"?>
<svg id="Calque_1" data-name="Calque 1" xmlns="http://www.w3.org/2000/svg" viewBox="0 0 108 99.23">
  <defs>
    <style>
      .cls-1 {
        fill: #33d7d1;
      }
    </style>
  </defs>
  <path class="cls-1" d="M43.6,28.94h4.93c1.1,0,2-.9,2-2s-.9-2-2-2h-4.93c-1.1,0-2,.9-2,2s.9,2,2,2Z"/>
  <path class="cls-1" d="M73.56,24.94c-1.1,0-2,.9-2,2s.9,2,2,2h4.93c1.1,0,2-.9,2-2s-.9-2-2-2h-4.93Z"/>
  <path class="cls-1" d="M24.27,64.36h29.51c.08,0,.15-.01,.22-.02,.07,0,.15,.02,.22,.02h29.51c1.23,0,2.22-1,2.22-2.22v-29.51s-.01-.09-.01-.13c0-.04,.01-.09,.01-.13V2.86c0-1.23-1-2.22-2.22-2.22h-29.51c-.08,0-.15,.01-.22,.02-.07,0-.15-.02-.22-.02H24.27c-1.23,0-2.22,1-2.22,2.22v29.51s.01,.09,.01,.13c0,.04-.01,.09-.01,.13v29.51c0,1.23,1,2.22,2.22,2.22Zm1.78-29.77h7.19v6.29c0,1.1,.9,2,2,2h7.2c1.1,0,2-.9,2-2v-6.29h7.56v25.77H26.04v-25.77Zm41.15,0h3.2v4.29h-3.2v-4.29Zm-29.96,0h3.2v4.29h-3.2v-4.29Zm18.76,25.77v-25.77h7.19v6.29c0,1.1,.9,2,2,2h7.2c1.1,0,2-.9,2-2v-6.29h7.56v25.77h-25.96Zm25.96-29.96h-25.96V4.63h7.19v6.47c0,1.1,.9,2,2,2h7.2c1.1,0,2-.9,2-2V4.63h7.56V30.41Zm-11.56-25.77v4.47h-3.2V4.63h3.2Zm-29.96,0v4.47h-3.2V4.63h3.2Zm-7.2,0v6.47c0,1.1,.9,2,2,2h7.2c1.1,0,2-.9,2-2V4.63h7.56V30.41H26.04V4.63h7.19Z"/>
  <path class="cls-1" d="M48.54,54.71h-4.93c-1.1,0-2,.9-2,2s.9,2,2,2h4.93c1.1,0,2-.9,2-2s-.9-2-2-2Z"/>
  <path class="cls-1" d="M78.49,54.71h-4.93c-1.1,0-2,.9-2,2s.9,2,2,2h4.93c1.1,0,2-.9,2-2s-.9-2-2-2Z"/>
  <path class="cls-1" d="M90.02,77.14c-1.1,0-2,.9-2,2v5.57H19.98v-5.57c0-1.1-.9-2-2-2s-2,.9-2,2v17.46c0,1.1,.9,2,2,2H90.02c1.1,0,2-.9,2-2v-17.46c0-1.1-.9-2-2-2Zm-11.89,11.57v5.89h-17.18v-5.89h17.18Zm-31.07,0v5.89H29.88v-5.89h17.18Zm-27.07,5.89v-5.89h5.89v5.89h-5.89Zm31.07,0v-5.89h5.89v5.89h-5.89Zm36.96,0h-5.89v-5.89h5.89v5.89Z"/>
  <path class="cls-1" d="M54,67.42c-1.1,0-2,.9-2,2v4.86h-1.29c-.78,0-1.48,.45-1.81,1.15s-.22,1.53,.28,2.13l3.29,3.94s.04,.03,.05,.05c.06,.07,.12,.13,.19,.18,.04,.03,.08,.07,.12,.1,.07,.05,.15,.1,.24,.14,.04,.02,.08,.05,.12,.06,.09,.04,.19,.07,.3,.1,.03,0,.07,.02,.1,.03,.14,.03,.28,.05,.42,.05s.29-.02,.42-.05c.04,0,.07-.02,.11-.03,.1-.03,.19-.06,.29-.1,.05-.02,.09-.05,.13-.07,.08-.04,.15-.08,.22-.14,.04-.03,.09-.07,.13-.11,.06-.05,.12-.11,.18-.17,.02-.02,.04-.03,.06-.06l3.29-3.95c.5-.6,.61-1.43,.28-2.13s-1.04-1.15-1.81-1.15h-1.29v-4.86c0-1.1-.9-2-2-2Z"/>
</svg>