<?xml version="1.0" encoding="UTF-8"?>
<svg id="général" xmlns="http://www.w3.org/2000/svg" viewBox="0 0 100 100">
  <defs>
    <style>
      .cls-1 {
        fill: #d73353;
      }
    </style>
  </defs>
  <g>
    <path d="M95.04,68.63l-9.61,1.1v.42c-.25,2.53-1.6,4.3-3.79,5.06-4.21,1.35-13.99,3.45-14.41,3.54h-.42l-11.12-.25c-1.18,0-2.02-.93-2.02-2.11,0-1.1,.93-2.02,2.11-1.94l10.36,.25c.34,0,.67,0,.93-.08,2.36-.51,9.52-2.11,12.89-3.2,.67-.25,1.26-.42,1.35-1.69,.17-1.94-1.1-4.38-2.19-4.97-1.43-.76-5.73-.42-9.52-.17-3.37,.25-5.14,.51-8.68,.25-2.02-.08-4.63-.84-6.66-1.26-6.15-1.26-10.2-.59-13.9,.84-1.43,.59-2.86,1.1-4.13,1.69-2.78,1.1-5.65,1.94-8.51,2.53l-5.48,1.1c-1.35,.25-2.28,1.43-2.28,2.78v15.76c0,1.77,1.6,3.12,3.37,2.78l5.65-1.18c2.19-.42,4.55-.42,6.74,.08l17.19,3.79c3.88,1.18,8,.84,11.71-.93l33.87-16.18c.51-.25,.93-.59,1.1-1.1,1.52-4.21-1.43-7.25-4.55-6.91Z"/>
    <path d="M58.14,52.92c.38,.66,1.08,1.06,1.84,1.06s1.46-.41,1.84-1.06l6.91-11.96c.38-.66,.38-1.47,0-2.13-.38-.66-1.08-1.06-1.84-1.06h-4.78v-13.76c0-1.17-.95-2.13-2.13-2.13s-2.13,.95-2.13,2.13v13.76h-4.78c-.76,0-1.46,.41-1.84,1.06-.38,.66-.38,1.47,0,2.13l6.91,11.96Z"/>
  </g>
  <path class="cls-1" d="M24.45,5.56C10.95,5.56,0,16.51,0,30.01s10.95,24.45,24.45,24.45,24.45-10.95,24.45-24.45S37.95,5.56,24.45,5.56Zm13.37,33.24c1.2,1.25,1.2,3.23,0,4.48-1.24,1.3-3.29,1.34-4.59,.1l-8.79-8.79-8.79,8.79c-1.25,1.2-3.23,1.2-4.48,0-1.29-1.24-1.34-3.29-.1-4.59l8.79-8.79-8.79-8.79c-1.27-1.27-1.27-3.32,0-4.59,1.27-1.27,3.32-1.27,4.59,0l8.79,8.79,8.79-8.79c1.27-1.27,3.32-1.27,4.59,0,1.27,1.27,1.27,3.32,0,4.59l-8.79,8.79,8.79,8.79Z"/>
</svg>