<svg xmlns="http://www.w3.org/2000/svg" viewBox="0 0 100 100">
    <g id="général">
        <path class="svg-fill" d="M99.19,57a.28.28,0,0,0,0-.09,1.61,1.61,0,0,0-.12-.39l0-.08a1.61,1.61,0,0,0-.21-.3l0-.05L82.62,38.46a1.63,1.63,0,0,0-1.21-.53h-9V33a1.64,1.64,0,0,0-1.64-1.64h-54A1.64,1.64,0,0,0,15.09,33V74.82a1.64,1.64,0,0,0,1.64,1.64h6.66c0,.18,0,.35,0,.53a9.49,9.49,0,1,0,19,0c0-.18,0-.35,0-.53H74.79c0,.18,0,.35,0,.53a9.48,9.48,0,1,0,19,0c0-.18,0-.35,0-.53h3.87a1.64,1.64,0,0,0,1.64-1.64V57.19A1.36,1.36,0,0,0,99.19,57ZM32.85,83.19a6.21,6.21,0,0,1-6.2-6.2c0-.18,0-.35,0-.53h0a6.2,6.2,0,0,1,12.35,0h0c0,.18,0,.35,0,.53A6.2,6.2,0,0,1,32.85,83.19Zm51.39,0A6.21,6.21,0,0,1,78,77c0-.18,0-.35,0-.53a6.19,6.19,0,0,1,12.34,0,4.71,4.71,0,0,1,0,.53A6.21,6.21,0,0,1,84.24,83.19Zm8.35-27.64H72.93a.55.55,0,0,1-.55-.54V41.76a.55.55,0,0,1,.55-.55h7.52a.55.55,0,0,1,.4.18L93,54.64A.54.54,0,0,1,92.59,55.55Z"/>
        <g id="icone">
            <circle fill="#d73353" cx="20.87" cy="33.6" r="20.08"/>
            <path fill="#fff" d="M31.85,40.82,24.63,33.6l7.22-7.21a2.67,2.67,0,0,0-3.77-3.77l-7.21,7.21-7.22-7.21a2.66,2.66,0,1,0-3.76,3.77L17.1,33.6,9.89,40.82a2.66,2.66,0,0,0,3.76,3.76l7.22-7.21,7.21,7.21a2.66,2.66,0,0,0,3.77-3.76Z"/>
        </g>
    </g>
</svg>