<?xml version="1.0" encoding="utf-8"?>
<!-- Generator: Adobe Illustrator 21.0.0, SVG Export Plug-In . SVG Version: 6.00 Build 0)  -->
<svg version="1.1" id="Calque_1" xmlns="http://www.w3.org/2000/svg" xmlns:xlink="http://www.w3.org/1999/xlink" x="0px" y="0px"
	 viewBox="0 0 64 64.7" style="enable-background:new 0 0 64 64.7;" xml:space="preserve">
<style type="text/css">
	.svg-cogs-st0{fill:#525252;}
</style>
<g>
	<g>
		<path class="svg-cogs-st0 svg-fill" d="M23.3,60.4c1.2-0.3,2.3-0.8,3.3-1.4l2.1,1.7c0.7,0.6,1.7,0.5,2.3-0.1l2.9-2.9c0.6-0.6,0.7-1.6,0.1-2.3
			l-1.7-2.1c0.6-1.1,1.1-2.3,1.5-3.5l2.7-0.3c0.9-0.1,1.6-0.9,1.6-1.7v-4.1c0-0.9-0.7-1.6-1.6-1.7l-2.6-0.3
			c-0.3-1.3-0.8-2.6-1.5-3.7l1.6-2.1c0.6-0.7,0.5-1.7-0.1-2.3L31,30.7c-0.6-0.6-1.6-0.7-2.3-0.1l-2,1.6c-1.2-0.7-2.4-1.2-3.7-1.5
			l-0.3-2.5c-0.1-0.9-0.9-1.6-1.7-1.6h-4.1c-0.9,0-1.6,0.7-1.7,1.6l-0.3,2.4c-1.3,0.3-2.5,0.8-3.6,1.5l-1.9-1.5
			c-0.7-0.6-1.7-0.5-2.3,0.1l-2.9,2.9c-0.6,0.6-0.7,1.6-0.1,2.3l1.5,1.8c-0.7,1.2-1.2,2.5-1.6,3.8l-2.4,0.3C0.7,41.9,0,42.7,0,43.5
			v4.1c0,0.9,0.7,1.6,1.6,1.7L4,49.6c0.4,1.4,0.9,2.7,1.7,3.9l-1.5,1.9c-0.6,0.7-0.5,1.7,0.1,2.3l2.9,2.9c0.6,0.6,1.6,0.7,2.3,0.1
			l2-1.6c1.2,0.6,2.4,1.1,3.7,1.4l0.3,2.6c0.1,0.9,0.9,1.6,1.7,1.6h4.1c0.9,0,1.6-0.7,1.7-1.6L23.3,60.4z M12.1,45.4
			c0-3.8,3.1-6.8,6.8-6.8s6.8,3.1,6.8,6.8c0,3.8-3.1,6.8-6.8,6.8S12.1,49.1,12.1,45.4z"/>
		<path class="svg-cogs-st0 svg-fill" d="M24.3,4.4l-1.8,2.2c-0.6,0.7-0.5,1.7,0.1,2.3l1.1,1.2c-0.5,1-0.8,2.1-1,3.2L21,13.6c-0.9,0.2-1.5,1-1.4,1.8
			l0.2,2.9c0.1,0.9,0.8,1.6,1.7,1.6l1.7,0.1c0.4,1.1,0.9,2.1,1.6,3.1l-1,1.4c-0.5,0.7-0.3,1.7,0.3,2.3l2.2,1.8
			c0.7,0.6,1.7,0.5,2.3-0.1l1.3-1.3c1,0.4,2,0.7,3.1,0.9l0.4,1.8c0.2,0.9,1,1.5,1.8,1.4l2.9-0.2c0.9-0.1,1.6-0.8,1.6-1.7l0.1-1.9
			c0.9-0.4,1.8-0.8,2.6-1.4l1.6,1.1c0.7,0.5,1.7,0.3,2.3-0.3l1.8-2.2c0.6-0.7,0.5-1.7-0.1-2.3L46.7,21c0.4-0.9,0.8-1.9,1-2.9l2-0.4
			c0.9-0.2,1.5-1,1.4-1.8L50.9,13c-0.1-0.9-0.8-1.6-1.7-1.6l-1.9-0.1c-0.4-1-0.9-2-1.5-2.9l1-1.6c0.5-0.7,0.3-1.7-0.3-2.3l-2.2-1.8
			c-0.7-0.6-1.7-0.5-2.3,0.1l-1.3,1.3c-1-0.5-2-0.8-3.1-1l-0.4-1.7c-0.2-0.9-1-1.5-1.8-1.4l-2.9,0.2c-0.9,0.1-1.6,0.8-1.6,1.7
			l-0.1,1.7c-1,0.4-2,0.8-2.9,1.4l-1.4-1C25.9,3.6,24.9,3.8,24.3,4.4z M40.8,15.2c0.3,3.1-2,5.8-5.1,6.1c-3.1,0.3-5.8-2-6.1-5.1
			s2-5.8,5.1-6.1C37.8,9.8,40.6,12.1,40.8,15.2z"/>
		<path class="svg-cogs-st0 svg-fill" d="M48.5,50.4c0.1,0.9,0.8,1.5,1.7,1.6H52c0.9,0,1.6-0.6,1.7-1.5l0.2-1.3c0.8-0.2,1.5-0.5,2.2-0.9l1,0.8
			c0.7,0.6,1.7,0.5,2.3-0.1l1.3-1.2c0.6-0.6,0.7-1.6,0.2-2.3l-0.8-1c0.4-0.7,0.8-1.5,1-2.3l1.3-0.1c0.9-0.1,1.5-0.8,1.6-1.7v-1.8
			c0-0.9-0.6-1.6-1.5-1.7l-1.3-0.2c-0.2-0.9-0.5-1.7-1-2.5l0.8-1c0.6-0.7,0.5-1.7-0.1-2.3l-1.2-1.3c-0.6-0.6-1.6-0.7-2.3-0.2l-1,0.7
			c-0.8-0.5-1.6-0.8-2.4-1.1l-0.1-1.2c-0.1-0.9-0.8-1.5-1.7-1.6h-1.8c-0.9,0-1.6,0.6-1.7,1.5l-0.1,1.1c-0.8,0.2-1.7,0.5-2.4,1
			l-0.9-0.7c-0.7-0.6-1.7-0.5-2.3,0.1l-1.3,1.2C41.1,31,41,32,41.5,32.7l0.6,0.8c-0.5,0.8-0.8,1.6-1.1,2.5l-1.1,0.1
			c-0.9,0.1-1.5,0.8-1.6,1.7v1.8c0,0.9,0.6,1.6,1.5,1.7l1.1,0.1c0.2,0.9,0.6,1.8,1.1,2.6l-0.7,0.9c-0.6,0.7-0.5,1.7,0.1,2.3l1.2,1.3
			c0.6,0.6,1.6,0.7,2.3,0.2l1-0.7c0.8,0.4,1.6,0.8,2.4,1L48.5,50.4z M46.5,39.1c0-2.5,2.1-4.5,4.6-4.5s4.5,2.1,4.5,4.6
			s-2.1,4.5-4.6,4.5S46.5,41.6,46.5,39.1z"/>
	</g>
</g>
</svg>
