<svg xmlns="http://www.w3.org/2000/svg" viewBox="0 0 100 100">
    <path class="svg-fill" d="M91.45,62.38l-11.36,1.3v.5a6.59,6.59,0,0,1-4.48,6c-5,1.6-16.54,4.09-17,4.19h-.49L44.93,74a2.38,2.38,0,0,1-2.4-2.38v-.11a2.3,2.3,0,0,1,2.36-2.25H45l12.25.3a3.64,3.64,0,0,0,1.09-.1c2.79-.6,11.26-2.49,15.25-3.79a1.88,1.88,0,0,0,1.59-2c.2-2.29-1.29-5.18-2.59-5.88-1.69-.9-6.77-.5-11.26-.2a58.61,58.61,0,0,1-10.26.3A56.58,56.58,0,0,1,43.2,56.4c-7.27-1.5-12-.7-16.44,1-1.69.7-3.38,1.3-4.88,2a60,60,0,0,1-10.06,3L5.34,63.7A3.33,3.33,0,0,0,2.68,67V85.6A3.34,3.34,0,0,0,6,88.94a3.47,3.47,0,0,0,.64-.06l6.67-1.39a19.43,19.43,0,0,1,8,.1l20.33,4.48A19.08,19.08,0,0,0,55.49,91L95.54,71.85a2.35,2.35,0,0,0,1.29-1.3C98.62,65.57,95.14,62,91.45,62.38Z"/>
    <path class="svg-fill" d="M47.83,43.8A2.49,2.49,0,0,0,50,45.06a2.52,2.52,0,0,0,2.18-1.26l8.16-14.14a2.52,2.52,0,0,0-2.17-3.77H52.51V9.62a2.51,2.51,0,0,0-5-.45,3.38,3.38,0,0,0,0,.45V25.89H41.83a2.52,2.52,0,0,0-2.17,3.77Z"/>
</svg>