<?xml version="1.0" encoding="utf-8"?>
<!-- Generator: Adobe Illustrator 21.0.0, SVG Export Plug-In . SVG Version: 6.00 Build 0)  -->
<svg version="1.1" id="Calque_1" xmlns="http://www.w3.org/2000/svg" xmlns:xlink="http://www.w3.org/1999/xlink" x="0px" y="0px"
	 viewBox="0 0 108.1 96.7" style="enable-background:new 0 0 108.1 96.7;" xml:space="preserve">
<style type="text/css">
	.svg-collecte-st0{fill:#FF5B00;}
</style>
<g>
	<path class="svg-collecte-st0 svg-fill" d="M108.1,94.8c0,1.1-0.9,1.9-1.9,1.9H1.9c-1.1,0-1.9-0.9-1.9-1.9V36.9C0,35.8,0.9,35,1.9,35h3.9
		c1.1,0,1.9,0.9,1.9,1.9v46.3c0,3.2,2.6,5.8,5.8,5.8h81c3.2,0,5.8-2.6,5.8-5.8V36.9c0-1.1,0.9-1.9,1.9-1.9h3.9
		c1.1,0,1.9,0.9,1.9,1.9L108.1,94.8L108.1,94.8z"/>
	<path class="svg-collecte-st0 svg-fill" d="M34.8,48.5c0,1.1-0.9,1.9-1.9,1.9H21.3c-1.1,0-1.9-0.9-1.9-1.9V36.9c0-1.1,0.9-1.9,1.9-1.9h11.6
		c1.1,0,1.9,0.9,1.9,1.9V48.5z"/>
	<path class="svg-collecte-st0 svg-fill" d="M34.8,75.5c0,1.1-0.9,1.9-1.9,1.9H21.3c-1.1,0-1.9-0.9-1.9-1.9V63.9c0-1.1,0.9-1.9,1.9-1.9h11.6
		c1.1,0,1.9,0.9,1.9,1.9V75.5z"/>
	<path class="svg-collecte-st0 svg-fill" d="M46.3,63.9c0-1.1,0.9-1.9,1.9-1.9h11.6c1.1,0,1.9,0.9,1.9,1.9v11.6c0,1.1-0.9,1.9-1.9,1.9H48.2
		c-1.1,0-1.9-0.9-1.9-1.9V63.9z"/>
	<path class="svg-collecte-st0 svg-fill" d="M88.8,48.5c0,1.1-0.9,1.9-1.9,1.9H75.3c-1.1,0-1.9-0.9-1.9-1.9V36.9c0-1.1,0.9-1.9,1.9-1.9h11.6
		c1.1,0,1.9,0.9,1.9,1.9V48.5z"/>
	<path class="svg-collecte-st0 svg-fill" d="M88.8,75.5c0,1.1-0.9,1.9-1.9,1.9H75.3c-1.1,0-1.9-0.9-1.9-1.9V63.9c0-1.1,0.9-1.9,1.9-1.9h11.6
		c1.1,0,1.9,0.9,1.9,1.9V75.5z"/>
	<path class="svg-collecte-st0 svg-fill" d="M39.6,33.3c-0.3-0.7-0.1-1.5,0.4-2.1l6.6-6.6c0.8-0.8,0.8-2,0-2.7L34.7,10c-0.7-0.8-0.7-2,0-2.7l6.8-6.8
		c0.8-0.7,2-0.7,2.7,0l11.9,11.9c0.8,0.8,2,0.8,2.7,0l6.6-6.6c0.5-0.6,1.4-0.7,2.1-0.4c0.7,0.3,1.2,1,1.2,1.8v25.4
		c0,1.1-0.9,1.9-1.9,1.9H41.4C40.6,34.5,39.9,34,39.6,33.3z"/>
</g>
</svg>
