<?xml version="1.0" encoding="UTF-8"?>
<svg id="Calque_1" data-name="Calque 1" xmlns="http://www.w3.org/2000/svg" viewBox="0 0 108 99.23">
  <defs>
    <style>
      .svg-collect-cls-1 {
        fill: #d76433;
      }
    </style>
  </defs>
  <g>
    <path class="svg-collect-cls-1 svg-fill" d="M105.75,4.25h-31.09c-1.23,0-2.24,1-2.24,2.24v31.09c0,1.23,1,2.24,2.24,2.24h31.09c1.23,0,2.24-1,2.24-2.24V6.49c0-1.23-1-2.24-2.24-2.24Zm-13.94,4v4.93h-3.59v-4.93h3.59Zm12.18,27.56h-27.56V8.25h7.79v6.93c0,1.1,.9,2,2,2h7.59c1.1,0,2-.9,2-2v-6.93h8.18v27.56Z"/>
    <path class="svg-collect-cls-1 svg-fill" d="M95.03,29.86c-1.1,0-2,.9-2,2s.9,2,2,2h5.2c1.1,0,2-.9,2-2s-.9-2-2-2h-5.2Z"/>
  </g>
  <g>
    <path class="svg-collect-cls-1 svg-fill" d="M32.51,99.3H8.85c-1.2,0-2.18-.98-2.18-2.18v-23.66c0-1.2,.98-2.18,2.18-2.18h23.66c1.2,0,2.18,.98,2.18,2.18v23.66c0,1.2-.98,2.18-2.18,2.18Zm-21.84-4H30.69v-20.01H10.67v20.01Z"/>
    <path class="svg-collect-cls-1 svg-fill" d="M23.42,82.08h-5.77c-1.1,0-2-.9-2-2v-6.79c0-1.1,.9-2,2-2h5.77c1.1,0,2,.9,2,2v6.79c0,1.1-.9,2-2,2Zm-3.77-4h1.77v-2.79h-1.77v2.79Z"/>
  </g>
  <g>
    <path class="svg-collect-cls-1 svg-fill" d="M32.51,75.29H8.85c-1.2,0-2.18-.98-2.18-2.18v-23.66c0-1.2,.98-2.18,2.18-2.18h23.66c1.2,0,2.18,.98,2.18,2.18v23.66c0,1.2-.98,2.18-2.18,2.18Zm-21.84-4H30.69v-20.01H10.67v20.01Z"/>
    <path class="svg-collect-cls-1 svg-fill" d="M23.42,58.07h-5.77c-1.1,0-2-.9-2-2v-6.79c0-1.1,.9-2,2-2h5.77c1.1,0,2,.9,2,2v6.79c0,1.1-.9,2-2,2Zm-3.77-4h1.77v-2.79h-1.77v2.79Z"/>
  </g>
  <g>
    <path class="svg-collect-cls-1 svg-fill" d="M56.52,99.3h-23.66c-1.2,0-2.18-.98-2.18-2.18v-23.66c0-1.2,.98-2.18,2.18-2.18h23.66c1.2,0,2.18,.98,2.18,2.18v23.66c0,1.2-.98,2.18-2.18,2.18Zm-21.84-4h20.01v-20.01h-20.01v20.01Z"/>
    <path class="svg-collect-cls-1 svg-fill" d="M47.43,82.08h-5.77c-1.1,0-2-.9-2-2v-6.79c0-1.1,.9-2,2-2h5.77c1.1,0,2,.9,2,2v6.79c0,1.1-.9,2-2,2Zm-3.77-4h1.77v-2.79h-1.77v2.79Z"/>
  </g>
  <g>
    <path class="svg-collect-cls-1 svg-fill" d="M45.27,30.89l-11.36-6.84c-.31-.19-.67-.29-1.03-.29h-.11c-.36,0-.72,.1-1.03,.29L2.31,41.76c-1.65,.93-2.68,2.68-2.68,4.57v50.96c0,1.1,.9,2,2,2s2-.9,2-2V46.34c0-.45,.24-.87,.69-1.12l28.51-17.16,11.09,6.67c.41-1.35,.86-2.63,1.37-3.85Z"/>
    <path class="svg-collect-cls-1 svg-fill" d="M63.39,41.79l-7.65-4.61c-.42,1.24-.79,2.57-1.1,4l6.75,4.06c.39,.22,.64,.64,.64,1.09v50.96c0,1.1,.9,2,2,2s2-.9,2-2V46.34c0-1.9-1.03-3.65-2.63-4.54Z"/>
  </g>
  <path class="svg-collect-cls-1 svg-fill" d="M68.87,21.03c0-1.1-.9-2-2-2-5.1,0-9.43,1.82-12.88,5.4-6.92,7.21-8.69,19.89-8.74,30.75l-3.6-3.6c-.39-.39-.9-.59-1.41-.59s-1.02,.2-1.41,.59c-.78,.78-.78,2.05,0,2.83l7.11,7.11h.02c.07,.08,.15,.14,.23,.2,.03,.02,.05,.04,.08,.06,.11,.07,.22,.13,.34,.18,.04,.02,.09,.02,.13,.04,.08,.03,.16,.05,.24,.07,.11,.02,.23,.03,.34,.03,.01,0,.03,0,.04,0h0s.05,0,.08,0c.04,0,.08-.01,.13-.02,.07,0,.15-.02,.22-.03,.06-.01,.12-.03,.18-.05,.06-.02,.13-.04,.19-.07,.06-.03,.12-.06,.18-.09,.05-.03,.11-.06,.16-.1,.06-.04,.12-.09,.17-.14,.03-.03,.07-.05,.1-.08l7.29-7.29c.78-.78,.78-2.05,0-2.83-.39-.39-.9-.59-1.41-.59s-1.02,.2-1.41,.59l-3.96,3.96c.04-13.11,2.7-23.02,7.63-28.15,2.66-2.77,6.02-4.17,9.99-4.17,1.1,0,2-.9,2-2Z"/>
</svg>