<?xml version="1.0" encoding="utf-8"?>
<!-- Generator: Adobe Illustrator 26.3.1, SVG Export Plug-In . SVG Version: 6.00 Build 0)  -->
<svg version="1.1" id="Calque_1" xmlns="http://www.w3.org/2000/svg" xmlns:xlink="http://www.w3.org/1999/xlink" x="0px" y="0px"
	 viewBox="0 0 100 100" style="enable-background:new 0 0 100 100;" xml:space="preserve">
<style type="text/css">
	.st0{fill:#FFFFFF;}
</style>
<g id="icone">
	<path class="st0" d="M88.4,77.1L61.3,50l27.1-27.1c3.1-3.1,3.1-8.2,0-11.3s-8.2-3.1-11.3,0l0,0L50,38.7L22.9,11.6
		c-3.1-3.1-8.2-3.1-11.3,0s-3.1,8.2,0,11.3L38.7,50L11.6,77.1c-3,3.2-2.9,8.3,0.3,11.3c3.1,2.9,7.9,2.9,11,0L50,61.3l27.1,27.1
		c3.2,3,8.3,2.9,11.3-0.3C91.4,85.1,91.4,80.2,88.4,77.1z"/>
</g>
</svg>
