<?xml version="1.0" encoding="UTF-8"?>
<svg id="Calque_1" data-name="Calque 1" xmlns="http://www.w3.org/2000/svg" viewBox="0 0 108 99.23">
  <defs>
    <style>
      .svg-delivery-cls-1 {
        fill: #eab713;
      }
    </style>
  </defs>
  <path class="svg-delivery-cls-1 svg-fill" d="M50.09,42.91h-1.96v-12.49s0-.04,0-.06c0-.02,0-.04,0-.06V15.93c0-1.16-.95-2.11-2.11-2.11h-14.35s-.07,0-.11,.01c-.04,0-.07-.01-.11-.01h-14.35c-1.16,0-2.11,.95-2.11,2.11v14.35s0,.04,0,.06c0,.02,0,.04,0,.06v12.49h-.69c-.49-1.26-1.44-2.29-2.63-2.89V7.48c0-.76-.43-1.45-1.11-1.79L3.68,2.26c-.99-.5-2.19-.09-2.68,.89-.49,.99-.09,2.19,.89,2.68l5.77,2.89v30.95c-2.24,.68-3.87,2.75-3.87,5.21,0,3,2.44,5.44,5.44,5.44,2.28,0,4.23-1.41,5.04-3.41H48.09v1.41c0,1.1,.9,2,2,2s2-.9,2-2v-3.41c0-1.1-.9-2-2-2Zm-31.1-10.51h10.57v10.48h-10.57v-10.48Zm14.57,0h10.57v10.48h-10.57v-10.48Zm10.57-4.09h-10.57v-10.48h10.57v10.48Zm-14.57-10.48v10.48h-10.57v-10.48h10.57ZM9.23,46.32c-.79,0-1.44-.65-1.44-1.44s.65-1.44,1.44-1.44,1.44,.65,1.44,1.44-.65,1.44-1.44,1.44Z"/>
  <path class="svg-delivery-cls-1 svg-fill" d="M73.77,97.18c-1.1,0-2-.89-2-2,0-1.1,.89-2,2-2l6-.02h0c1.1,0,2,.89,2,2,0,1.1-.89,2-2,2l-6,.02h0Zm-6,0h-.01c-2.03-.01-4.05-.04-6.04-.09-1.1-.03-1.98-.94-1.95-2.05,.03-1.1,1-1.98,2.05-1.95,1.96,.05,3.96,.07,5.97,.09,1.1,0,1.99,.91,1.99,2.01,0,1.1-.9,1.99-2,1.99Zm-12-.31s-.07,0-.11,0c-2.19-.11-4.18-.26-6.07-.44-1.1-.1-1.91-1.08-1.8-2.18,.1-1.1,1.08-1.91,2.18-1.8,1.84,.18,3.77,.31,5.9,.43,1.1,.06,1.95,1,1.89,2.1-.05,1.07-.94,1.9-2,1.9Zm-11.94-1.18c-.11,0-.21,0-.32-.03-2.21-.36-4.25-.8-6.08-1.31-1.07-.29-1.69-1.4-1.39-2.46,.29-1.06,1.4-1.69,2.46-1.39,1.69,.47,3.59,.88,5.65,1.21,1.09,.18,1.83,1.21,1.65,2.3-.16,.98-1.01,1.68-1.97,1.68Zm-11.49-3.34c-.3,0-.6-.07-.89-.21-2.18-1.08-4-2.38-5.42-3.85-.76-.8-.74-2.06,.06-2.83,.8-.76,2.06-.74,2.83,.06,1.09,1.14,2.54,2.17,4.31,3.04,.99,.49,1.39,1.69,.9,2.68-.35,.7-1.06,1.11-1.79,1.11Zm-7.8-8.58c-.88,0-1.68-.58-1.93-1.47-.37-1.34-.55-2.78-.55-4.3,0-.82,.04-1.62,.12-2.38,.12-1.1,1.09-1.89,2.2-1.78,1.1,.12,1.9,1.1,1.78,2.2-.07,.62-.1,1.28-.1,1.96,0,1.16,.14,2.25,.41,3.24,.29,1.06-.33,2.17-1.4,2.46-.18,.05-.36,.07-.53,.07Zm1.36-11.57c-.34,0-.68-.09-1-.27-.96-.55-1.28-1.78-.73-2.73,1.13-1.95,2.73-3.6,4.76-4.9,.93-.6,2.17-.33,2.76,.6,.6,.93,.33,2.17-.6,2.76-1.51,.97-2.64,2.12-3.45,3.54-.37,.64-1.04,1-1.73,1Zm9.59-6.57c-.88,0-1.68-.58-1.92-1.46-.3-1.06,.32-2.17,1.39-2.47,1.83-.51,3.85-.9,6.19-1.19,1.08-.12,2.09,.64,2.23,1.74,.13,1.1-.65,2.09-1.74,2.23-2.13,.26-3.96,.61-5.6,1.07-.18,.05-.36,.07-.54,.07Zm11.88-1.61c-1.06,0-1.95-.84-2-1.91-.05-1.1,.8-2.04,1.91-2.09,1.72-.08,3.6-.13,6.08-.16h.03c1.09,0,1.98,.88,2,1.97,.01,1.1-.87,2.01-1.97,2.03-2.43,.03-4.27,.08-5.95,.16-.03,0-.06,0-.09,0Zm12.03-.23c-1.09,0-1.98-.88-2-1.97-.02-1.1,.87-2.01,1.97-2.03,2.44-.03,4.27-.09,5.94-.17,1.08-.07,2.04,.8,2.09,1.9s-.8,2.04-1.9,2.09c-1.72,.08-3.59,.13-6.08,.17h-.03Zm15.76-1.26c-1.09,.23-2.25,.42-3.5,.58-.09,.01-.17,.02-.26,.02-.99,0-1.85-.74-1.98-1.74-.14-1.1,.63-2.1,1.73-2.24,2.14-.28,3.96-.64,5.56-1.13l-1.54,4.51Zm12.43-13.44h-.04c-1.1-.02-1.98-.93-1.96-2.04v-.42c0-1.61-.33-3.11-.99-4.47-.48-.99-.07-2.19,.93-2.67,1-.48,2.19-.07,2.67,.93,.92,1.91,1.39,4,1.39,6.22v.5c-.03,1.09-.92,1.96-2,1.96Zm-4.93-10.42c-.45,0-.9-.15-1.27-.46-1.27-1.05-2.84-2-4.67-2.83-1-.46-1.45-1.64-.99-2.65,.46-1,1.65-1.45,2.65-.99,2.14,.98,4.01,2.11,5.55,3.38,.85,.7,.98,1.96,.27,2.81-.4,.48-.97,.73-1.55,.73Zm-10.76-5.12c-.18,0-.36-.02-.53-.07-1.75-.48-3.65-.89-5.66-1.22-1.09-.18-1.83-1.21-1.65-2.3,.18-1.09,1.21-1.83,2.29-1.65,2.14,.35,4.19,.79,6.08,1.31,1.07,.29,1.69,1.4,1.4,2.46-.25,.89-1.05,1.47-1.93,1.47Zm-11.83-1.98c-.05,0-.1,0-.16,0-1.94-.15-3.91-.23-5.85-.23-1.1,0-2-.9-2-2s.9-2,2-2c2.04,0,4.11,.08,6.15,.24,1.1,.09,1.92,1.05,1.84,2.15-.08,1.05-.96,1.85-1.99,1.85Z"/>
  <path class="svg-delivery-cls-1 svg-fill" d="M90.02,96.92c-.8,0-1.56-.38-2.03-1.02-1.55-2.07-15.16-20.52-15.16-30.84,0-9.48,7.71-17.2,17.2-17.2s17.2,7.71,17.2,17.2c0,10.31-13.61,28.77-15.16,30.84-.48,.64-1.24,1.02-2.04,1.02Zm0-45.05c-7.28,0-13.2,5.92-13.2,13.2,0,6.8,8.06,19.71,13.2,26.85,5.14-7.13,13.2-20.05,13.2-26.85,0-7.28-5.92-13.2-13.2-13.2Zm0,22.44c-5.1,0-9.25-4.15-9.25-9.25s4.15-9.25,9.25-9.25,9.25,4.15,9.25,9.25-4.15,9.25-9.25,9.25Zm0-14.49c-2.89,0-5.25,2.35-5.25,5.25s2.35,5.25,5.25,5.25,5.25-2.35,5.25-5.25-2.35-5.25-5.25-5.25Z"/>
</svg>