<?xml version="1.0" encoding="utf-8"?>
<!-- Generator: Adobe Illustrator 21.0.0, SVG Export Plug-In . SVG Version: 6.00 Build 0)  -->
<svg version="1.1" id="Calque_1" xmlns="http://www.w3.org/2000/svg" xmlns:xlink="http://www.w3.org/1999/xlink" x="0px" y="0px"
	 viewBox="0 0 108.1 93.2" style="enable-background:new 0 0 108.1 93.2;" xml:space="preserve">
<style type="text/css">
	.svg-delivery-st0{fill:#F4B400;}
</style>
<g>
	<path class="svg-delivery-st0 svg-fill" d="M108.1,91.3c0,1.1-0.9,1.9-1.9,1.9H1.9c-1.1,0-1.9-0.9-1.9-1.9V33.4c0-1.1,0.9-1.9,1.9-1.9h3.9
		c1.1,0,1.9,0.9,1.9,1.9v46.3c0,3.2,2.6,5.8,5.8,5.8h81c3.2,0,5.8-2.6,5.8-5.8V33.4c0-1.1,0.9-1.9,1.9-1.9h3.9
		c1.1,0,1.9,0.9,1.9,1.9v57.9H108.1z"/>
	<path class="svg-delivery-st0 svg-fill" d="M34.7,45c0,1.1-0.9,1.9-1.9,1.9H21.2c-1.1,0-1.9-0.9-1.9-1.9V33.4c0-1.1,0.9-1.9,1.9-1.9h11.6
		c1.1,0,1.9,0.9,1.9,1.9V45z"/>
	<path class="svg-delivery-st0 svg-fill" d="M34.7,72c0,1.1-0.9,1.9-1.9,1.9H21.2c-1.1,0-1.9-0.9-1.9-1.9V60.4c0-1.1,0.9-1.9,1.9-1.9h11.6
		c1.1,0,1.9,0.9,1.9,1.9V72z"/>
	<path class="svg-delivery-st0 svg-fill" d="M46.3,60.4c0-1.1,0.9-1.9,1.9-1.9h11.6c1.1,0,1.9,0.9,1.9,1.9V72c0,1.1-0.9,1.9-1.9,1.9H48.2
		c-1.1,0-1.9-0.9-1.9-1.9V60.4z"/>
	<path class="svg-delivery-st0 svg-fill" d="M88.8,45c0,1.1-0.9,1.9-1.9,1.9H75.2c-1.1,0-1.9-0.9-1.9-1.9V33.4c0-1.1,0.9-1.9,1.9-1.9h11.6
		c1.1,0,1.9,0.9,1.9,1.9V45H88.8z"/>
	<path class="svg-delivery-st0 svg-fill" d="M88.8,72c0,1.1-0.9,1.9-1.9,1.9H75.2c-1.1,0-1.9-0.9-1.9-1.9V60.4c0-1.1,0.9-1.9,1.9-1.9h11.6
		c1.1,0,1.9,0.9,1.9,1.9V72H88.8z"/>
	<path class="svg-delivery-st0 svg-fill" d="M70.1,29.5c-0.7,0.3-1.5,0.1-2.1-0.5l-6.5-6.7c-0.7-0.8-2-0.8-2.7,0L46.7,34c-0.8,0.7-2,0.7-2.7,0l-6.7-6.9
		c-0.7-0.8-0.7-2,0-2.7l12.1-11.7c0.8-0.7,0.8-2,0-2.7l-6.5-6.7c-0.6-0.5-0.7-1.4-0.4-2.1c0.3-0.7,1-1.2,1.8-1.2l25.4,0.5
		c1.1,0,1.9,0.9,1.9,2l-0.5,25.4C71.3,28.5,70.8,29.3,70.1,29.5z"/>
</g>
</svg>
