<svg xmlns="http://www.w3.org/2000/svg" viewBox="0 0 100 100">
    <g>
        <g>
            <g data-name="Tracé 89">
                <path class="svg-fill"
                      fill="#1c328e"
                      d="M50,51.4a8,8,0,0,1-5.66-2.35L11.55,16.26A8,8,0,0,1,22.87,5L50,32.08,77.13,5A8,8,0,0,1,88.45,16.26L55.66,49.05A8,8,0,0,1,50,51.4Z"/>
            </g>
        </g>
        <g data-name="croix">
            <g data-name="Tracé 89">
                <path fill="#1c328e"
                      class="svg-fill"
                      d="M50,97.4a8,8,0,0,1-5.66-2.35L11.55,62.26A8,8,0,0,1,22.87,51L50,78.08,77.13,51A8,8,0,0,1,88.45,62.26L55.66,95.05A8,8,0,0,1,50,97.4Z"/>
            </g>
        </g>
    </g>
</svg>
