<svg xmlns="http://www.w3.org/2000/svg" viewBox="0 0 100 100">
    <g>
        <g>
            <g data-name="Tracé 89">
                <path class="svg-fill"
                      fill="#1c328e"
                      d="M50,48.6A8,8,0,0,1,55.66,51L88.45,83.74A8,8,0,0,1,77.13,95.05L50,67.92,22.87,95.05A8,8,0,0,1,11.55,83.74L44.34,51A8,8,0,0,1,50,48.6Z"/>
            </g>
        </g>
        <g data-name="croix">
            <g data-name="Tracé 89">
                <path class="svg-fill"
                      fill="#1c328e"
                      d="M50,2.6A8,8,0,0,1,55.66,5L88.45,37.74A8,8,0,0,1,77.13,49.05L50,21.92,22.87,49.05A8,8,0,0,1,11.55,37.74L44.34,5A8,8,0,0,1,50,2.6Z"/>
            </g>
        </g>
    </g>
</svg>
