<svg xmlns="http://www.w3.org/2000/svg" viewBox="0 0 100 100">
    <defs>
        <style>.svg-emergency-cls-1 {
            fill: #fff;
        }

        .svg-emergency-cls-2 {
            fill: #d73353;
        }</style>
    </defs>
    <g>
        <path class="svg-emergency-cls-1"
              d="M50,26.86a5.84,5.84,0,0,0-5.85,5.84V61.92a5.85,5.85,0,1,0,11.7,0V32.7A5.84,5.84,0,0,0,50,26.86Z"/>
        <circle class="svg-emergency-cls-1" cx="50.01" cy="79.46" r="5.85" transform="translate(-41.54 58.64) rotate(-45)"/>
        <path class="svg-emergency-cls-2 svg-fill"
              d="M97.79,74.92,62.57,10.16a14.6,14.6,0,0,0-25.12,0L2.21,74.92A14.62,14.62,0,0,0,14.77,97H85.33A14.62,14.62,0,0,0,97.79,74.92ZM44.14,32.7a5.85,5.85,0,0,1,11.7,0V61.92a5.85,5.85,0,1,1-11.7,0ZM50,85.31a5.85,5.85,0,1,1,5.85-5.85A5.85,5.85,0,0,1,50,85.31Z"/>
    </g>
</svg>