<?xml version="1.0" encoding="utf-8"?>
<svg data-name="Calque 1" xmlns="http://www.w3.org/2000/svg" viewBox="0 0 108 99.23">
    <defs>
        <style>.svg-empty-round-cls-1 {
            fill: #d76433;
        }</style>
    </defs>
    <g data-name="passage a vide">
        <path class="svg-empty-round-cls-1 svg-fill"
              d="M92.89,85,63.05,79.19c8.33-12.38,21.49-34.06,21.49-47.43a30.54,30.54,0,0,0-61.08,0c0,13.39,13.19,35.1,21.51,47.47L15.1,85.16A2,2,0,0,0,15,89.07L53.57,98A2.14,2.14,0,0,0,54,98a2.3,2.3,0,0,0,.45-.05L93,88.89A2,2,0,0,0,92.89,85ZM54,5.22A26.57,26.57,0,0,1,80.54,31.76c0,13.87-16.92,40.37-26.54,53.4-9.62-13-26.54-39.53-26.54-53.4A26.57,26.57,0,0,1,54,5.22ZM54,94,25,87.27l22.41-4.45c2.3,3.3,3.89,5.44,4.15,5.79a3,3,0,0,0,4.83,0c.27-.35,1.87-2.5,4.18-5.82L83,87.13Z"/>
        <path class="svg-empty-round-cls-1 svg-fill"
              d="M72.31,31.76A18.31,18.31,0,1,0,54,50.07,18.33,18.33,0,0,0,72.31,31.76Zm-32.62,0A14.31,14.31,0,1,1,54,46.07,14.33,14.33,0,0,1,39.69,31.76Z"/>
    </g>
</svg>
