<?xml version="1.0" encoding="utf-8"?>
<!-- Generator: Adobe Illustrator 21.0.0, SVG Export Plug-In . SVG Version: 6.00 Build 0)  -->
<svg version="1.1" id="Calque_1" xmlns="http://www.w3.org/2000/svg" xmlns:xlink="http://www.w3.org/1999/xlink" x="0px" y="0px"
	 viewBox="0 0 37 35" style="enable-background:new 0 0 37 35;" xml:space="preserve">
<style type="text/css">
	.svg-exclamation-triangle-st0{fill:none;stroke:#FFFFFF;stroke-width:2.6937;stroke-miterlimit:10;}
	.svg-exclamation-triangle-st1{fill:#FFFFFF;}
</style>
<g>
	<path class="svg-exclamation-triangle-st0 svg-stroke" d="M16,3.9c1.1-1.9,3.9-1.9,5,0l7,12.2l7,12.2c1.1,1.9-0.3,4.3-2.5,4.3H18.5H4.4c-2.2,0-3.6-2.4-2.5-4.3l7-12.2
		L16,3.9z"/>
	<g>
		<path class="svg-exclamation-triangle-st1 svg-fill" d="M18.5,22.6L18.5,22.6c-1.1,0-2-0.9-2-2v-8.7c0-1.1,0.9-2,2-2h0c1.1,0,2,0.9,2,2v8.7
			C20.5,21.7,19.6,22.6,18.5,22.6z"/>
		<circle class="svg-exclamation-triangle-st1 svg-fill" cx="18.5" cy="27" r="1.9"/>
	</g>
</g>
</svg>
