<?xml version="1.0" encoding="UTF-8"?>
<svg xmlns="http://www.w3.org/2000/svg" viewBox="0 0 100 100">
  <defs>
    <style>
      .svg-exclamation-cls-1 {
        fill: #d73353;
      }
    </style>
  </defs>
  <path class="svg-exclamation-cls-1 svg-fill" d="m50,71.79c-4.42,0-8-3.58-8-8l-.03-54c0-4.42,3.58-8,8-8h0c4.42,0,8,3.58,8,8l.03,54c0,4.42-3.58,8-8,8h0Z"/>
  <path class="svg-exclamation-cls-1 svg-fill" d="m50.01,97.79c-2.11,0-4.17-.85-5.66-2.34-1.49-1.49-2.35-3.55-2.35-5.66,0-.52.06-1.05.16-1.56.1-.51.26-1.02.46-1.5.2-.48.44-.95.73-1.38.3-.44.63-.85,1-1.22,1.85-1.86,4.62-2.71,7.22-2.18.51.1,1.01.25,1.49.45.49.2.95.45,1.38.74.44.29.85.62,1.22.99.37.37.7.78,1,1.22.28.43.53.9.73,1.38.2.48.35.99.46,1.5.1.51.15,1.04.15,1.56s-.05,1.05-.15,1.56c-.11.51-.26,1.02-.46,1.5-.2.48-.45.95-.73,1.38-.3.44-.63.85-1,1.22-1.49,1.49-3.55,2.34-5.65,2.34Z"/>
</svg>
