<?xml version="1.0" encoding="iso-8859-1"?>
<!-- Generator: Adobe Illustrator 19.0.0, SVG Export Plug-In . SVG Version: 6.00 Build 0)  -->
<svg version="1.1" id="Capa_1" xmlns="http://www.w3.org/2000/svg" xmlns:xlink="http://www.w3.org/1999/xlink" x="0px" y="0px"
	 viewBox="0 0 356 356" style="enable-background:new 0 0 356 356;" xml:space="preserve">
<g>
	<g>
		<path d="M355.6,134.6c0-0.4,0-0.8-0.4-1.2V133l-36-65.2c-0.4-0.4-0.8-1.2-1.2-1.6c-0.4-0.4-1.2-0.8-1.6-1.2c0,0-0.4,0-0.4-0.4
			c-0.8-0.4-1.6-0.4-2.4-0.4H42.4c-0.8,0-1.6,0-2.4,0.4c0,0-0.4,0-0.4,0.4c-0.8,0.4-1.2,0.8-1.6,1.2c-0.4,0.4-0.8,0.8-1.2,1.6
			L0.8,133v0.4c0,0.4-0.4,0.8-0.4,1.2c0,0.4-0.4,0.8-0.4,1.2v0.4V285c0,4,2.8,6.8,6.4,6.8h343.2c3.6,0,6.4-2.8,6.4-6.4V136.2v-0.4
			C356,135.4,356,135,355.6,134.6z M320,96.6l18.4,33.6H320V96.6z M48.8,77.8h258v52h-258V77.8z M216.4,143v37.6H140V143H216.4z
			 M36,96.2v33.6H17.6L36,96.2z M12.8,278.6v-136h114v44c0,3.6,2.8,6.4,6.4,6.4h89.2c3.6,0,6.4-2.8,6.4-6.4v-44h114v136H12.8z"/>
	</g>
</g>
<g>
</g>
<g>
</g>
<g>
</g>
<g>
</g>
<g>
</g>
<g>
</g>
<g>
</g>
<g>
</g>
<g>
</g>
<g>
</g>
<g>
</g>
<g>
</g>
<g>
</g>
<g>
</g>
<g>
</g>
</svg>
