<?xml version="1.0" encoding="utf-8"?>
<svg version="1.1" id="Capa_1" xmlns="http://www.w3.org/2000/svg" xmlns:xlink="http://www.w3.org/1999/xlink" x="0px" y="0px"
	 viewBox="0 0 356 356" style="enable-background:new 0 0 356 356;" xml:space="preserve">
<style type="text/css">
	.st0{fill:#290947;}
</style>
<g>
	<g>
		<path class="st0" d="M308.8,134.6c0-0.4,0-0.8-0.3-1.2V133L282,67.8c-0.3-0.4-0.6-1.2-0.9-1.6s-0.9-0.8-1.2-1.2c0,0-0.3,0-0.3-0.4
			c-0.6-0.4-1.2-0.4-1.8-0.4H78.1c-0.6,0-1.2,0-1.8,0.4c0,0-0.3,0-0.3,0.4c-0.6,0.4-0.9,0.8-1.2,1.2c-0.3,0.4-0.6,0.8-0.9,1.6
			L47.5,133v0.4c0,0.4-0.3,0.8-0.3,1.2s-0.3,0.8-0.3,1.2v0.4V285c0,4,2.1,6.8,4.7,6.8h252.8c2.7,0,4.7-2.8,4.7-6.4V136.2v-0.4
			C309.1,135.4,309.1,135,308.8,134.6z M282.6,96.6l13.6,33.6h-13.6V96.6z M82.8,77.8h190v52h-190L82.8,77.8L82.8,77.8z M206.3,143
			v37.6H150V143H206.3z M73.4,96.2v33.6H59.9L73.4,96.2z M56.3,278.6v-136h84v44c0,3.6,2.1,6.4,4.7,6.4h65.7c2.7,0,4.7-2.8,4.7-6.4
			v-44h84v136H56.3z"/>
	</g>
</g>
</svg>
