<svg id="Calque_1" data-name="Calque 1" xmlns="http://www.w3.org/2000/svg" viewBox="0 0 108 99.23">
    <defs>
        <style>.svg-group-cls-1 {
            fill: #5e1a52;
        }</style>
    </defs>
    <path class="svg-group-cls-1 svg-fill" d="M52.15,55h4.72a2,2,0,1,0,0-4H52.15a2,2,0,0,0,0,4Z"/>
    <path class="svg-group-cls-1 svg-fill" d="M56.85,76.87H52.13a2,2,0,1,0,0,4h4.72a2,2,0,0,0,0-4Z"/>
    <path class="svg-group-cls-1 svg-fill" d="M81.88,55H86.6a2,2,0,0,0,0-4H81.88a2,2,0,0,0,0,4Z"/>
    <path class="svg-group-cls-1 svg-fill" d="M82.51,80.87h4.07a2,2,0,0,0,0-4H82.51a2,2,0,1,0,0,4Z"/>
    <path class="svg-group-cls-1 svg-fill"
          d="M98.5,82.94H93.83V30.05a2.31,2.31,0,0,0-2.3-2.3H63.46a2.31,2.31,0,0,0-.83.16,2.27,2.27,0,0,0-.83-.16H33.74a2.3,2.3,0,0,0-2.3,2.3V82.94H29.68a8.51,8.51,0,0,0-5.45-6V14.34a2,2,0,0,0-1.1-1.79l-13-6.48A2,2,0,1,0,8.37,9.65l11.86,5.93V76.49a8.48,8.48,0,1,0,9.42,10.45H96.5v4.43a2,2,0,0,0,4,0V84.94A2,2,0,0,0,98.5,82.94ZM35.44,60.3h7.4v6.75a2,2,0,0,0,2,2h5.51a2,2,0,0,0,2-2V60.3H60.1V82.88H35.44Zm12.91.64v4.11H46.84V60.94Zm29.72,0v4.11h-1.5V60.94Zm-3.5,8.11h5.5a2,2,0,0,0,2-2V60.3h7.76V82.88H65.17V60.3h7.4v6.75A2,2,0,0,0,74.57,69.05Zm3.5-37.3v4.11h-1.5V31.75Zm-5.5,0v6.11a2,2,0,0,0,2,2h5.5a2,2,0,0,0,2-2V31.75h7.76V56.3H65.17V31.75Zm-24.22,0v4.11H46.84V31.75Zm-5.51,0v6.11a2,2,0,0,0,2,2h5.51a2,2,0,0,0,2-2V31.75H60.1V56.3H35.44V31.75ZM21.42,89.37a4.49,4.49,0,1,1,4.49-4.48A4.49,4.49,0,0,1,21.42,89.37Z"/>
</svg>
