<?xml version="1.0" encoding="utf-8"?>
<!-- Generator: Adobe Illustrator 21.0.0, SVG Export Plug-In . SVG Version: 6.00 Build 0)  -->
<svg version="1.1"
     id="Calque_1"
     xmlns="http://www.w3.org/2000/svg" xmlns:xlink="http://www.w3.org/1999/xlink" x="0px" y="0px"
	 viewBox="0 0 49.4 39.6" style="enable-background:new 0 0 49.4 39.6;" xml:space="preserve">
<style type="text/css">
	.svg-home-st0{fill:#FFFFFF;}
</style>
<g>
	<g>
		<path class="svg-home-st0 svg-fill" d="M24.7,8L7,22.6v0.1v0.1v14.8c0,0.5,0.2,1,0.6,1.4C8,39.4,8.5,39.6,9,39.6h11.8V27.8h7.9v11.8h11.8
			c0.5,0,1-0.2,1.4-0.6s0.6-0.9,0.6-1.4V22.8c0-0.1,0-0.1,0-0.2L24.7,8z"/>
		<path class="svg-home-st0 svg-fill" d="M49.3,19.3l-6.8-5.6V1.1c0-0.3-0.1-0.5-0.3-0.7s-0.4-0.3-0.7-0.3h-5.9c-0.3,0-0.5,0.1-0.7,0.3
			c-0.2,0.2-0.3,0.4-0.3,0.7v6l-7.5-6.3C26.4,0.3,25.7,0,24.8,0c-0.9,0-1.7,0.3-2.3,0.8L0.3,19.3C0.1,19.5,0,19.7,0,20
			c0,0.3,0.1,0.5,0.2,0.7L2.1,23c0.2,0.2,0.4,0.3,0.6,0.3c0.2,0,0.5-0.1,0.7-0.2L24.7,5.3L46,23.1c0.2,0.1,0.4,0.2,0.6,0.2h0.1
			c0.3,0,0.5-0.2,0.6-0.3l1.9-2.3c0.2-0.2,0.2-0.4,0.2-0.7C49.6,19.7,49.5,19.4,49.3,19.3z"/>
	</g>
</g>
</svg>
