<?xml version="1.0" encoding="utf-8"?>
<!-- Generator: Adobe Illustrator 21.0.0, SVG Export Plug-In . SVG Version: 6.00 Build 0)  -->
<svg version="1.1" id="Calque_1" xmlns="http://www.w3.org/2000/svg" xmlns:xlink="http://www.w3.org/1999/xlink" x="0px" y="0px"
	 viewBox="0 0 107.8 74.7" style="enable-background:new 0 0 107.8 74.7;" xml:space="preserve">
<style type="text/css">
	.svg-inventary-st0{fill:#AF1FBF;}
</style>
<g>
	<g>
		<path class="svg-inventary-st0 svg-fill" d="M105.2,74.7H2.6c-1.4,0-2.6-1.2-2.6-2.6V2.6C0,1.2,1.2,0,2.6,0h102.6c1.4,0,2.6,1.2,2.6,2.6v69.5
			C107.8,73.6,106.7,74.7,105.2,74.7z M5.2,69.6h97.4V5.2H5.2V69.6z"/>
	</g>
	<g>
		<g>
			<g>
				<path class="svg-inventary-st0 svg-fill" d="M58.8,33.5V17.9c0-0.6-0.1-1-0.3-1.4C58.3,16.1,58,16,57.7,16h-7.1c-0.3,0-0.6,0.2-0.8,0.5
					c-0.2,0.4-0.3,0.8-0.3,1.4v15.6c0,0.6,0.1,1,0.3,1.4c0.2,0.4,0.5,0.5,0.8,0.5h7.1c0.3,0,0.6-0.2,0.8-0.5
					C58.6,34.5,58.8,34.1,58.8,33.5z"/>
				<path class="svg-inventary-st0 svg-fill" d="M77.6,45.2V18c0-0.6-0.1-1-0.3-1.4c-0.2-0.4-0.5-0.5-0.8-0.5h-7.1c-0.3,0-0.6,0.2-0.8,0.5
					c-0.2,0.4-0.3,0.8-0.3,1.4v27.2c0,0.6,0.1,1,0.3,1.4c0.2,0.4,0.5,0.5,0.8,0.5h7.1c0.3,0,0.6-0.2,0.8-0.5
					C77.5,46.2,77.6,45.7,77.6,45.2z"/>
				<path class="svg-inventary-st0 svg-fill" d="M96.4,56.9V18c0-0.6-0.1-1-0.3-1.4c-0.2-0.4-0.5-0.5-0.8-0.5h-7.1c-0.3,0-0.6,0.2-0.8,0.5
					c-0.2,0.4-0.3,0.8-0.3,1.4v38.9c0,0.6,0.1,1,0.3,1.4c0.2,0.4,0.5,0.5,0.8,0.5h7.1c0.3,0,0.6-0.2,0.8-0.5
					C96.3,57.9,96.4,57.4,96.4,56.9z"/>
			</g>
		</g>
		<g>
			<g>
				<path class="svg-inventary-st0 svg-fill" d="M49.4,34.9c0.2,0.4,0.5,0.5,0.8,0.5h7.1c0.3,0,0.6-0.2,0.8-0.5c0.2-0.4,0.3-0.8,0.3-1.4V17.9
					c0-0.6-0.1-1-0.3-1.4c-0.2-0.4-0.5-0.5-0.8-0.5h-7.1c-0.3,0-0.6,0.2-0.8,0.5c-0.2,0.4-0.3,0.8-0.3,1.4v15.6
					C49.1,34.1,49.2,34.5,49.4,34.9z"/>
				<path class="svg-inventary-st0 svg-fill" d="M30.6,46.6c0.2,0.4,0.5,0.5,0.8,0.5h7.1c0.3,0,0.6-0.2,0.8-0.5c0.2-0.4,0.3-0.8,0.3-1.4V18
					c0-0.6-0.1-1-0.3-1.4c-0.2-0.4-0.5-0.5-0.8-0.5h-7.1c-0.3,0-0.6,0.2-0.8,0.5c-0.2,0.4-0.3,0.8-0.3,1.4v27.2
					C30.3,45.7,30.4,46.2,30.6,46.6z"/>
				<path class="svg-inventary-st0 svg-fill" d="M11.8,58.3c0.2,0.4,0.5,0.5,0.8,0.5h7.1c0.3,0,0.6-0.2,0.8-0.5c0.2-0.4,0.3-0.8,0.3-1.4V18
					c0-0.6-0.1-1-0.3-1.4c-0.2-0.4-0.5-0.5-0.8-0.5h-7.1c-0.3,0-0.6,0.2-0.8,0.5c-0.2,0.4-0.3,0.8-0.3,1.4v38.9
					C11.5,57.4,11.6,57.9,11.8,58.3z"/>
			</g>
		</g>
	</g>
</g>
</svg>
