<?xml version="1.0" encoding="UTF-8"?>
<svg id="Calque_1" data-name="Calque 1" xmlns="http://www.w3.org/2000/svg" viewBox="0 0 108 99.23">
  <defs>
    <style>
      .svg-inventory-cls-1 {
        fill: #6433d7;
      }
    </style>
  </defs>
  <g>
    <path class="svg-inventory-cls-1 svg-fill" d="M86.94,22.55c-.52,0-1.03-.2-1.4-.58l-2.89-2.85c-.79-.78-.8-2.04-.02-2.83,.77-.79,2.04-.8,2.83-.02l1.06,1.04,3.19-5.42c.56-.95,1.79-1.27,2.74-.71,.95,.56,1.27,1.79,.71,2.74l-4.49,7.64c-.31,.53-.85,.89-1.46,.97-.09,.01-.17,.02-.26,.02Z"/>
    <path class="svg-inventory-cls-1 svg-fill" d="M87.75,29.78c-7.2,0-13.05-5.85-13.05-13.05s5.85-13.05,13.05-13.05,13.05,5.85,13.05,13.05-5.85,13.05-13.05,13.05Zm0-22.1c-4.99,0-9.05,4.06-9.05,9.05s4.06,9.05,9.05,9.05,9.05-4.06,9.05-9.05-4.06-9.05-9.05-9.05Z"/>
  </g>
  <g>
    <path class="svg-inventory-cls-1 svg-fill" d="M86.94,55.43c-.52,0-1.03-.2-1.4-.58l-2.89-2.85c-.79-.78-.8-2.04-.02-2.83,.77-.79,2.04-.8,2.83-.02l1.06,1.04,3.19-5.42c.56-.95,1.79-1.27,2.74-.71,.95,.56,1.27,1.79,.71,2.74l-4.49,7.64c-.31,.53-.85,.89-1.46,.97-.09,.01-.17,.02-.26,.02Z"/>
    <path class="svg-inventory-cls-1 svg-fill" d="M87.75,62.66c-7.2,0-13.05-5.85-13.05-13.05s5.85-13.05,13.05-13.05,13.05,5.85,13.05,13.05-5.85,13.05-13.05,13.05Zm0-22.1c-4.99,0-9.05,4.06-9.05,9.05s4.06,9.05,9.05,9.05,9.05-4.06,9.05-9.05-4.06-9.05-9.05-9.05Z"/>
  </g>
  <g>
    <path class="svg-inventory-cls-1 svg-fill" d="M86.94,88.31c-.52,0-1.03-.2-1.4-.58l-2.89-2.85c-.79-.78-.8-2.04-.02-2.83,.77-.79,2.04-.8,2.83-.02l1.06,1.04,3.19-5.43c.56-.95,1.79-1.27,2.74-.71,.95,.56,1.27,1.79,.71,2.74l-4.49,7.64c-.31,.53-.85,.89-1.46,.97-.09,.01-.17,.02-.26,.02Z"/>
    <path class="svg-inventory-cls-1 svg-fill" d="M87.75,95.55c-7.2,0-13.05-5.85-13.05-13.05s5.85-13.05,13.05-13.05,13.05,5.85,13.05,13.05-5.85,13.05-13.05,13.05Zm0-22.1c-4.99,0-9.05,4.06-9.05,9.05s4.06,9.05,9.05,9.05,9.05-4.06,9.05-9.05-4.06-9.05-9.05-9.05Z"/>
  </g>
  <path class="svg-inventory-cls-1 svg-fill" d="M61.08,23.29H9.2c-1.1,0-2-.9-2-2s.9-2,2-2H61.08c1.1,0,2,.9,2,2s-.9,2-2,2Z"/>
  <path class="svg-inventory-cls-1 svg-fill" d="M24.59,14.18H9.2c-1.1,0-2-.9-2-2s.9-2,2-2h15.38c1.1,0,2,.9,2,2s-.9,2-2,2Z"/>
  <path class="svg-inventory-cls-1 svg-fill" d="M61.08,57.53H9.2c-1.1,0-2-.9-2-2s.9-2,2-2H61.08c1.1,0,2,.9,2,2s-.9,2-2,2Z"/>
  <path class="svg-inventory-cls-1 svg-fill" d="M24.59,48.42H9.2c-1.1,0-2-.9-2-2s.9-2,2-2h15.38c1.1,0,2,.9,2,2s-.9,2-2,2Z"/>
  <path class="svg-inventory-cls-1 svg-fill" d="M61.08,89.05H9.2c-1.1,0-2-.9-2-2s.9-2,2-2H61.08c1.1,0,2,.9,2,2s-.9,2-2,2Z"/>
  <path class="svg-inventory-cls-1 svg-fill" d="M24.59,79.94H9.2c-1.1,0-2-.9-2-2s.9-2,2-2h15.38c1.1,0,2,.9,2,2s-.9,2-2,2Z"/>
</svg>