<?xml version="1.0" encoding="utf-8"?>
<!-- Generator: Adobe Illustrator 21.0.0, SVG Export Plug-In . SVG Version: 6.00 Build 0)  -->
<svg version="1.1" id="Calque_1" xmlns="http://www.w3.org/2000/svg" xmlns:xlink="http://www.w3.org/1999/xlink" x="0px" y="0px"
	 viewBox="0 0 48.3 36.7" style="enable-background:new 0 0 48.3 36.7;" xml:space="preserve">
<style type="text/css">
	.svg-logout-st0{fill:#FFFFFF;}
</style>
<g>
	<g>
		<path class="svg-logout-st0 svg-fill" d="M18.5,36.7c6.2,0,11.9-3.1,15.3-8.2c0.7-1,0.4-2.4-0.6-3.1S30.8,25,30.1,26
			c-2.6,3.9-6.9,6.2-11.6,6.2c-7.7,0-13.9-6.3-13.9-13.9S10.9,4.4,18.5,4.4c4.6,0,9,2.3,11.6,6.2c0.7,1,2.1,1.3,3.1,0.6
			c1-0.7,1.3-2.1,0.6-3.1C30.4,3,24.6,0,18.5,0C8.3,0,0,8.3,0,18.5S8.3,36.7,18.5,36.7z"/>
	</g>
	<path class="svg-logout-st0 svg-fill" d="M48.3,18c0,0.1-0.1,0.3-0.2,0.4L42.5,24c-0.2,0.2-0.4,0.2-0.6,0.1s-0.3-0.3-0.3-0.5v-3.1H15.8
		c-1.2,0-2.3-1-2.3-2.3c0-1.2,1-2.3,2.3-2.3h25.7v-3.5c0-0.2,0.1-0.3,0.2-0.4s0.2-0.2,0.4-0.2c0.1,0,0.3,0.1,0.4,0.2l5.6,5.6
		C48.2,17.7,48.3,17.9,48.3,18z"/>
</g>
</svg>
