<?xml version="1.0" encoding="UTF-8"?>
<svg data-name="Calque 1" xmlns="http://www.w3.org/2000/svg" viewBox="0 0 108 99.23">
  <defs>
    <style>
      .svg-manual-transfer-cls-1 {
        fill: #666;
      }

      .svg-manual-transfer-cls-2 {
        fill: #a5d733;
      }
    </style>
  </defs>
  <path class="svg-manual-transfer-cls-2" d="M47,27.66l-1.6,4h-15.61c-1.1,0-2-.89-2-2v-5.97L6.88,39.62l20.91,15.94v-5.92c0-1.11,.9-2,2-2h9.24l-1.6,4h-5.64v7.96c0,.76-.43,1.45-1.11,1.79-.28,.14-.59,.21-.89,.21-.43,0-.86-.14-1.21-.41L2.37,41.22c-.49-.38-.78-.97-.78-1.6s.29-1.21,.78-1.59L28.58,18.06c.6-.46,1.42-.54,2.1-.2,.68,.33,1.11,1.03,1.11,1.79v8.01h15.21Z"/>
  <path class="svg-manual-transfer-cls-2" d="M67.02,29.66c0,1.1-.88,1.99-1.98,2l1.91-2.51c.05,.16,.07,.33,.07,.51Z"/>
  <path class="svg-manual-transfer-cls-2" d="M106.9,59.6c0,.62-.29,1.21-.79,1.59l-26.21,19.97c-.35,.28-.78,.41-1.21,.41-.3,0-.6-.06-.88-.2-.69-.34-1.12-1.04-1.12-1.8v-8.01H41.36c-1.11,0-2-.9-2-2s.89-2,2-2h8.24l-.8,3.89,3.39-3.89h26.5c1.11,0,2,.9,2,2v5.97l20.91-15.93-20.91-15.94v5.98c0,1.1-.89,2-2,2h-12.62l3.48-4h7.14v-8.02c0-.76,.43-1.45,1.12-1.79,.68-.33,1.49-.26,2.09,.2l26.21,19.98c.5,.38,.79,.97,.79,1.59Z"/>
  <path class="svg-manual-transfer-cls-1" d="M70.5,41.52h-7.92l11.89-15.65c1.01-1.34,1.18-3.11,.44-4.62-.75-1.51-2.25-2.45-3.94-2.45l-20.06-.09h-.03c-2.8,0-5.29,1.68-6.33,4.29l-1.86,4.66-1.6,4-6.37,15.98-1.29,3.22c-.1,.26-.18,.52-.22,.78-.23,1.14,0,2.35,.67,3.33,.82,1.21,2.18,1.94,3.65,1.94h10.2l-2.21,10.65-.82,4-1.36,6.55c-.19,.89,.25,1.79,1.07,2.2,.28,.14,.58,.21,.88,.21,.57,0,1.12-.24,1.51-.69l7.21-8.27,3.48-4,13.88-15.92,2.45-2.81c.32-.37,.57-.77,.74-1.19,.48-1.11,.48-2.38-.05-3.53-.72-1.6-2.26-2.59-4.01-2.59Zm-20.9,26.04l2.54-12.25c.13-.59-.02-1.2-.4-1.67-.38-.46-.95-.73-1.55-.73h-12.66c-.18,0-.29-.1-.34-.18-.06-.09-.11-.22-.04-.39l.28-.7,1.6-4,6.37-15.98,1.6-4,1.27-3.18c.43-1.08,1.45-1.77,2.61-1.77h.01l20.07,.09c.16,0,.29,.07,.36,.22,.08,.15,.06,.3-.04,.43l-4.33,5.7-1.91,2.51-8.09,10.65c-.46,.61-.53,1.42-.2,2.1,.34,.68,1.04,1.11,1.8,1.11h11.95c.17,0,.3,.08,.37,.24,.07,.16,.05,.31-.06,.44l-1.26,1.44-3.48,4-13.88,15.92-3.39,3.89,.8-3.89Z"/>
</svg>
