<?xml version="1.0" encoding="UTF-8"?>
<svg id="Calque_1" data-name="Calque 1" xmlns="http://www.w3.org/2000/svg" viewBox="0 0 108 99.23">
  <defs>
    <style>
      .svg-manual-delivery-cls-1 {
        fill: #eab713;
      }

      .svg-manual-delivery-cls-2 {
        fill: #666;
      }
    </style>
  </defs>
  <g>
    <path class="svg-manual-delivery-cls-1 svg-fill" d="M9.23,46.32c-.79,0-1.44-.65-1.44-1.44s.65-1.44,1.44-1.44,1.44,.65,1.44,1.44-.65,1.44-1.44,1.44ZM46.02,13.83h-14.35s-.08,.01-.11,.01c-.04,0-.07-.01-.11-.01h-14.36c-1.16,0-2.1,.94-2.1,2.1v26.98h-.69c-.49-1.26-1.44-2.29-2.64-2.89V7.49c0-.76-.42-1.45-1.1-1.79L3.68,2.26c-.99-.5-2.19-.09-2.68,.89-.5,.99-.1,2.19,.89,2.69l5.77,2.88v30.95c-2.23,.68-3.87,2.76-3.87,5.21,0,3,2.44,5.44,5.44,5.44,2.28,0,4.24-1.41,5.04-3.41h26.05l1.61-4.03h-8.37v-10.48h10.57v4.96l4-10.02V15.93c0-1.16-.95-2.1-2.11-2.1Zm-16.46,29.05h-10.57v-10.48h10.57v10.48Zm0-14.57h-10.57v-10.48h10.57v10.48Zm14.57,0h-10.57v-10.48h10.57v10.48Z"/>
    <path class="svg-manual-delivery-cls-1 svg-fill" d="M73.77,97.18c-1.1,0-2-.89-2-2,0-1.1,.89-2,2-2l6-.02h0c1.1,0,2,.89,2,2,0,1.1-.89,2-2,2l-6,.02h0Zm-6,0h-.01c-2.03-.01-4.05-.04-6.04-.09-1.1-.03-1.98-.94-1.95-2.05,.03-1.1,1-1.98,2.05-1.95,1.96,.05,3.96,.07,5.97,.09,1.1,0,1.99,.91,1.99,2.01,0,1.1-.9,1.99-2,1.99Zm-12-.31s-.07,0-.11,0c-2.19-.11-4.18-.26-6.07-.44-1.1-.1-1.91-1.08-1.8-2.18,.1-1.1,1.08-1.91,2.18-1.8,1.84,.18,3.77,.31,5.9,.43,1.1,.06,1.95,1,1.89,2.1-.05,1.07-.94,1.9-2,1.9ZM73.21,30.04c-.22-.2-.48-.35-.78-.43-1.06-.29-2.17-.56-3.32-.8l-2.7,3.55c1.51,.27,2.96,.58,4.32,.94,.21,.05,.42,.1,.63,.16,.18,.05,.36,.08,.54,.08,.87,0,1.68-.59,1.92-1.47,.22-.77-.05-1.55-.61-2.03Zm10.72,5.07c-1.54-1.26-3.41-2.4-5.56-3.38-1-.46-2.19,0-2.65,.99-.45,1.01-.01,2.19,.99,2.65,1.83,.83,3.4,1.79,4.68,2.83,.37,.31,.82,.46,1.27,.46,.57,0,1.15-.25,1.54-.73,.7-.86,.58-2.12-.27-2.82Zm4.27,5.29c-.48-1-1.68-1.41-2.67-.93-.99,.48-1.41,1.68-.93,2.67,.66,1.36,.99,2.86,.99,4.47v.43c-.01,.49,.16,.95,.45,1.3,.36,.44,.9,.72,1.51,.73h.04c.81,0,1.52-.49,1.83-1.19,.11-.24,.17-.5,.17-.77v-.49c0-2.22-.46-4.32-1.39-6.22Zm-14.14,18.26c-.9,.18-1.87,.34-2.92,.47-1.09,.14-1.87,1.15-1.73,2.24,.13,1.01,.99,1.75,1.98,1.75,.09,0,.18-.01,.26-.02,.45-.06,.89-.12,1.31-.19,.77-.12,1.5-.25,2.2-.39l1.54-4.51c-.82,.25-1.69,.46-2.64,.65Zm-7.68,1.2c-.31-.18-.68-.27-1.07-.24-1.23,.06-2.54,.1-4.13,.13l-3.09,3.54c.36,.31,.81,.49,1.31,.49h.03c1.36-.02,2.54-.04,3.61-.08,.88-.02,1.69-.05,2.46-.09,1.11-.05,1.96-.99,1.91-2.09-.04-.71-.45-1.33-1.03-1.66Zm-18.77,.13c-.11,.01-.22,.01-.33,.02-1.11,.05-1.96,.99-1.91,2.09,.04,.87,.63,1.59,1.43,1.82,.18,.06,.37,.09,.57,.09h.09c1.04-.05,2.15-.09,3.42-.12l.83-4.01c-1.56,.02-2.88,.06-4.1,.11Zm-4.25,2.25c-.13-1.09-1.15-1.86-2.22-1.74-2.34,.29-4.36,.68-6.19,1.19-1.07,.3-1.69,1.4-1.39,2.46,.25,.89,1.05,1.47,1.92,1.47,.18,0,.36-.03,.54-.08,1.64-.46,3.47-.81,5.6-1.07,1.1-.13,1.88-1.13,1.74-2.23Zm-11.67,2.65c-.6-.93-1.83-1.2-2.77-.61-2.02,1.31-3.62,2.95-4.75,4.91-.55,.95-.23,2.18,.73,2.73,.31,.18,.66,.27,1,.27,.69,0,1.36-.36,1.73-1,.82-1.42,1.95-2.57,3.45-3.54,.93-.6,1.21-1.83,.61-2.76Zm-5.22,16.34c-.27-.99-.41-2.08-.41-3.24,0-.68,.03-1.34,.1-1.96,.11-1.1-.69-2.08-1.79-2.2-1.1-.11-2.08,.69-2.19,1.78-.08,.76-.12,1.56-.12,2.38,0,1.52,.18,2.96,.55,4.3,.24,.89,1.05,1.47,1.93,1.47,.17,0,.35-.02,.53-.07,1.06-.29,1.69-1.4,1.4-2.46Zm6.76,7.32c-1.77-.87-3.22-1.9-4.31-3.04-.77-.8-2.03-.82-2.83-.06-.8,.77-.82,2.03-.06,2.83,1.42,1.48,3.24,2.77,5.42,3.85,.29,.14,.59,.21,.89,.21,.73,0,1.44-.41,1.79-1.11,.49-.99,.08-2.19-.9-2.68Zm10.91,3.16c-2.06-.34-3.97-.74-5.65-1.21-1.07-.3-2.17,.33-2.46,1.39-.3,1.07,.32,2.17,1.39,2.46,1.83,.51,3.87,.95,6.08,1.31,.11,.02,.21,.03,.32,.03,.96,0,1.81-.7,1.97-1.68,.18-1.09-.56-2.12-1.65-2.3Z"/>
    <path class="svg-manual-delivery-cls-1 svg-fill" d="M90.01,55.82c-5.1,0-9.24,4.15-9.24,9.25s4.14,9.25,9.24,9.25,9.25-4.15,9.25-9.25-4.15-9.25-9.25-9.25Zm0,14.5c-2.89,0-5.24-2.36-5.24-5.25s2.35-5.25,5.24-5.25,5.25,2.36,5.25,5.25-2.35,5.25-5.25,5.25Zm0-14.5c-5.1,0-9.24,4.15-9.24,9.25s4.14,9.25,9.24,9.25,9.25-4.15,9.25-9.25-4.15-9.25-9.25-9.25Zm0,14.5c-2.89,0-5.24-2.36-5.24-5.25s2.35-5.25,5.24-5.25,5.25,2.36,5.25,5.25-2.35,5.25-5.25,5.25Zm0-14.5c-5.1,0-9.24,4.15-9.24,9.25s4.14,9.25,9.24,9.25,9.25-4.15,9.25-9.25-4.15-9.25-9.25-9.25Zm0,14.5c-2.89,0-5.24-2.36-5.24-5.25s2.35-5.25,5.24-5.25,5.25,2.36,5.25,5.25-2.35,5.25-5.25,5.25Zm0-14.5c-5.1,0-9.24,4.15-9.24,9.25s4.14,9.25,9.24,9.25,9.25-4.15,9.25-9.25-4.15-9.25-9.25-9.25Zm0,14.5c-2.89,0-5.24-2.36-5.24-5.25s2.35-5.25,5.24-5.25,5.25,2.36,5.25,5.25-2.35,5.25-5.25,5.25Zm0-14.5c-5.1,0-9.24,4.15-9.24,9.25s4.14,9.25,9.24,9.25,9.25-4.15,9.25-9.25-4.15-9.25-9.25-9.25Zm0,14.5c-2.89,0-5.24-2.36-5.24-5.25s2.35-5.25,5.24-5.25,5.25,2.36,5.25,5.25-2.35,5.25-5.25,5.25Zm0-14.5c-5.1,0-9.24,4.15-9.24,9.25s4.14,9.25,9.24,9.25,9.25-4.15,9.25-9.25-4.15-9.25-9.25-9.25Zm0,14.5c-2.89,0-5.24-2.36-5.24-5.25s2.35-5.25,5.24-5.25,5.25,2.36,5.25,5.25-2.35,5.25-5.25,5.25Zm0-22.45c-.2,0-.4,0-.59,.01-1.16,.04-2.29,.19-3.38,.46-5.46,1.29-9.92,5.2-11.98,10.32-.54,1.34-.92,2.77-1.1,4.25-.09,.71-.14,1.43-.14,2.16,0,10.31,13.61,28.77,15.16,30.84,.48,.63,1.24,1.01,2.03,1.01s1.56-.38,2.04-1.01c1.55-2.07,15.16-20.53,15.16-30.84,0-9.48-7.71-17.2-17.2-17.2Zm0,44.05c-5.13-7.14-13.19-20.05-13.19-26.85,0-7.28,5.92-13.2,13.19-13.2s13.2,5.92,13.2,13.2c0,6.8-8.06,19.71-13.2,26.85Zm0-36.1c-5.1,0-9.24,4.15-9.24,9.25s4.14,9.25,9.24,9.25,9.25-4.15,9.25-9.25-4.15-9.25-9.25-9.25Zm0,14.5c-2.89,0-5.24-2.36-5.24-5.25s2.35-5.25,5.24-5.25,5.25,2.36,5.25,5.25-2.35,5.25-5.25,5.25Zm0-14.5c-5.1,0-9.24,4.15-9.24,9.25s4.14,9.25,9.24,9.25,9.25-4.15,9.25-9.25-4.15-9.25-9.25-9.25Zm0,14.5c-2.89,0-5.24-2.36-5.24-5.25s2.35-5.25,5.24-5.25,5.25,2.36,5.25,5.25-2.35,5.25-5.25,5.25Zm0-14.5c-5.1,0-9.24,4.15-9.24,9.25s4.14,9.25,9.24,9.25,9.25-4.15,9.25-9.25-4.15-9.25-9.25-9.25Zm0,14.5c-2.89,0-5.24-2.36-5.24-5.25s2.35-5.25,5.24-5.25,5.25,2.36,5.25,5.25-2.35,5.25-5.25,5.25Zm0-14.5c-5.1,0-9.24,4.15-9.24,9.25s4.14,9.25,9.24,9.25,9.25-4.15,9.25-9.25-4.15-9.25-9.25-9.25Zm0,14.5c-2.89,0-5.24-2.36-5.24-5.25s2.35-5.25,5.24-5.25,5.25,2.36,5.25,5.25-2.35,5.25-5.25,5.25Zm0-14.5c-5.1,0-9.24,4.15-9.24,9.25s4.14,9.25,9.24,9.25,9.25-4.15,9.25-9.25-4.15-9.25-9.25-9.25Zm0,14.5c-2.89,0-5.24-2.36-5.24-5.25s2.35-5.25,5.24-5.25,5.25,2.36,5.25,5.25-2.35,5.25-5.25,5.25Z"/>
  </g>
  <path class="svg-manual-delivery-cls-2" d="M41.8,32.4l-4.18,10.48h4.31l2.2-5.52v-4.96h-2.33Zm0,0l-4.18,10.48h4.31l2.2-5.52v-4.96h-2.33Zm28.7,11.63h-7.92l8.15-10.73,2.48-3.26,1.26-1.66c1.01-1.34,1.18-3.11,.44-4.62-.75-1.51-2.25-2.45-3.94-2.46l-20.06-.09c-.97,0-1.92,.21-2.78,.6-1.59,.69-2.9,1.99-3.58,3.69l-.42,1.05-.7,1.76-1.63,4.09-4.18,10.48-1.61,4.03-2.58,6.46c-.54,1.36-.37,2.89,.45,4.1,.82,1.22,2.18,1.94,3.65,1.94h10.2l-.12,.58-.81,3.93-3.46,16.69c-.19,.89,.25,1.8,1.07,2.2,.28,.14,.58,.21,.88,.21,.57,0,1.12-.24,1.51-.69l16.24-18.63,3.34-3.84,7.44-8.53c1.15-1.32,1.42-3.12,.69-4.72-.72-1.59-2.26-2.58-4.01-2.58Zm.31,4.68l-9.63,11.04-3.09,3.54-9.29,10.66,2.08-10.06,.83-4.01,.43-2.07c.13-.58-.02-1.2-.4-1.66-.38-.47-.95-.74-1.55-.74h-12.66c-.18,0-.29-.1-.34-.18-.06-.08-.11-.22-.04-.38l3.17-7.94,1.61-4.03,2.2-5.52,4-10.02,.14-.35c.43-1.08,1.45-1.78,2.61-1.78h.01l20.07,.09c.16,0,.29,.08,.36,.23,.08,.15,.06,.29-.04,.43l-2.17,2.85-2.7,3.55-9.46,12.46c-.46,.6-.53,1.42-.2,2.1,.34,.68,1.04,1.11,1.8,1.11h11.95c.17,0,.3,.08,.37,.24,.07,.16,.05,.3-.06,.44Zm-29.01-16.31l-4.18,10.48h4.31l2.2-5.52v-4.96h-2.33Zm0,0l-4.18,10.48h4.31l2.2-5.52v-4.96h-2.33Z"/>
</svg>