<?xml version="1.0" encoding="UTF-8"?>
<svg id="général" xmlns="http://www.w3.org/2000/svg" viewBox="0 0 100 100">
  <defs>
    <style>
      .cls-1 {
        fill: #666;
      }

      .cls-2 {
        fill: #cbcbcb;
      }
    </style>
  </defs>
  <path class="cls-2" d="M50,100C22.43,100,0,77.57,0,50S22.43,0,50,0s50,22.43,50,50-22.43,50-50,50Z"/>
  <g>
    <path class="cls-1" d="M79.93,51.4v-.08c-.01-.08-.03-.15-.05-.23,0-.01,0-.03,0-.04-.04-.08-.08-.16-.14-.24h0l-11-14.24c-.21-.27-.53-.42-.87-.42h-26.52c1.2-2.4,2.13-4.85,2.13-6.76,0-4.81-3.9-8.71-8.72-8.71-4.81,0-8.71,3.9-8.71,8.71,0,1.91,.92,4.37,2.12,6.76h-4.4c-.61,0-1.1,.49-1.1,1.1v28.45c0,.61,.49,1.1,1.1,1.1h4.55v.38c0,3.56,2.88,6.44,6.44,6.44s6.44-2.88,6.44-6.44h0v-.38h22.14v.38c0,3.56,2.88,6.44,6.44,6.44s6.44-2.88,6.44-6.44h0v-.38h2.66c.61,0,1.1-.49,1.1-1.1v-14.24s-.04-.04-.04-.07ZM34.77,22.86c3.6,0,6.51,2.92,6.51,6.51,0,3.35-3.95,9.7-6.51,13.28-2.57-3.58-6.51-9.93-6.51-13.28,0-3.6,2.92-6.51,6.51-6.51Zm-5.99,14.4v0Zm5.99,34.17c-2.34,0-4.24-1.9-4.24-4.24s1.9-4.24,4.24-4.24,4.24,1.9,4.24,4.24-1.9,4.24-4.24,4.24h0Zm24.7-19.96v13.14h-18.81c-1.42-3.25-5.22-4.74-8.47-3.32-1.48,.65-2.67,1.83-3.32,3.32h-3.98v-26.27h4.47c1.31,2.26,2.75,4.45,4.3,6.54,.45,.61,1.3,.74,1.91,.29,.11-.08,.21-.18,.29-.29,1.56-2.1,3-4.29,4.3-6.55h19.3v13.14Zm-18.69-14.24v0Zm20.89,1.1h5.63l9.31,12.04h-14.94v-12.04Zm8.1,33.1c-2.34,0-4.24-1.9-4.24-4.24s1.9-4.24,4.24-4.24,4.24,1.9,4.24,4.24h0c0,2.34-1.9,4.24-4.24,4.24Zm7.97-6.82h-2.08c-1.42-3.25-5.22-4.74-8.47-3.32-1.48,.65-2.67,1.83-3.32,3.32h-2.2v-12.04h16.07v12.04Z"/>
    <path class="cls-1" d="M38.83,29.38c0-2.25-1.82-4.07-4.07-4.07s-4.07,1.82-4.07,4.07c0,2.25,1.82,4.07,4.07,4.07h0c2.25,0,4.07-1.82,4.07-4.07Zm-5.94,0c0-1.03,.84-1.87,1.87-1.87s1.87,.84,1.87,1.87-.84,1.87-1.87,1.87h0c-1.03,0-1.87-.84-1.87-1.87Z"/>
  </g>
</svg>