<svg id="Calque_1" data-name="Calque 1" xmlns="http://www.w3.org/2000/svg" viewBox="0 0 96.9 68.16">
    <path id="Icon_awesome-box-open" data-name="Icon awesome-box-open"
          d="M64.43,34.1a7.32,7.32,0,0,1-6.25-3.56L48.45,14.42,38.74,30.54a7.29,7.29,0,0,1-8.3,3.27L9.72,27.88V54.81a4.84,4.84,0,0,0,3.66,4.69l32.7,8.18a9.79,9.79,0,0,0,4.69,0L83.51,59.5a4.86,4.86,0,0,0,3.66-4.69V27.89L66.46,33.81A7.32,7.32,0,0,1,64.43,34.1Zm32.17-17L88.81,1.57A2.45,2.45,0,0,0,86.28.22L48.45,5.05l13.87,23a2.5,2.5,0,0,0,2.8,1.11l29.94-8.54a2.49,2.49,0,0,0,1.71-3.07h0a2.05,2.05,0,0,0-.16-.41ZM8.09,1.57.3,17.12a2.48,2.48,0,0,0,1.09,3.32,2.32,2.32,0,0,0,.44.16l29.93,8.55a2.49,2.49,0,0,0,2.8-1.1l13.9-23L10.6.23A2.48,2.48,0,0,0,8.09,1.57Z"/>
</svg>