<svg id="Calque_1" data-name="Calque 1" xmlns="http://www.w3.org/2000/svg" viewBox="0 0 108 99.23"><defs><style>.cls-1{fill:#6433d7;}.cls-2{fill:#fff;}.cls-3{fill:#1d1d1b;}</style></defs><path class="cls-1" d="M77,83.82a2,2,0,0,0,1.23.43,1.84,1.84,0,0,0,.47-.06L87.59,82a2,2,0,0,0,1.53-1.94V68.25a2,2,0,0,0-2.25-2L78,67.38a2,2,0,0,0-1.76,2V82.25A2,2,0,0,0,77,83.82ZM80.2,71.13l4.92-.61v8l-4.92,1.2Z"/><path class="cls-1" d="M105.64,51.79,94.51,32.52a2.2,2.2,0,0,0-.33-.41L94.09,32a1.84,1.84,0,0,0-.43-.3h0a1.86,1.86,0,0,0-.47-.16l-.14,0-.13,0L54.2,29a1.22,1.22,0,0,0-.27,0L15.09,31.53l-.13,0-.15,0a2.16,2.16,0,0,0-.45.15h0a2.42,2.42,0,0,0-.42.29l-.09.09a2.2,2.2,0,0,0-.33.41L2.36,51.79a2,2,0,0,0-.1,1.8,2,2,0,0,0,1.38,1.15L13.33,57V85.06a2,2,0,0,0,1.53,2l38.74,9.2a1.89,1.89,0,0,0,.47.06,2,2,0,0,0,.47-.06l38.71-9.39a2,2,0,0,0,1.53-1.94V57l9.58-2.24a2,2,0,0,0,1.38-1.15A2,2,0,0,0,105.64,51.79ZM54.07,33l17.68,1.17L54,36.35,36.28,34.13ZM16.29,35.67,50.62,40l-11.56,19L7.17,51.46Zm1,22.27,22.22,5.21a2.49,2.49,0,0,0,.46.05,2,2,0,0,0,1.71-1l10.35-17V91.74L17.33,83.48ZM90.78,83.31,56.07,91.72V45.48L66.28,62.24a2,2,0,0,0,1.71,1,2.49,2.49,0,0,0,.46-.05l22.33-5.23ZM68.94,58.92,57.38,40l34.33-4.28,9.12,15.79Z"/><path class="cls-2" d="M70.24,21.38,55.7,5.51A1.73,1.73,0,0,0,54.48,5a1.78,1.78,0,0,0-1.24.51L37.79,21.34A1.69,1.69,0,0,0,39,24.21h6.15v9.27L54,34.8l8.84-1.32V24.21H69a1.69,1.69,0,0,0,1.24-2.83Z"/><path class="cls-3" d="M54,36.82,43.15,35.21v-9H39A3.68,3.68,0,0,1,36.36,20L51.81,4.08a3.68,3.68,0,0,1,5.36.08L71.72,20A3.69,3.69,0,0,1,69,26.21H64.85v9Zm-6.86-5.06,6.86,1,6.84-1V22.21h7.44L54.44,7.1,39.74,22.21h7.41Z"/></svg>