<?xml version="1.0" encoding="utf-8"?>
<!-- Generator: Adobe Illustrator 21.0.0, SVG Export Plug-In . SVG Version: 6.00 Build 0)  -->
<svg version="1.1" id="Calque_1" xmlns="http://www.w3.org/2000/svg" xmlns:xlink="http://www.w3.org/1999/xlink" x="0px" y="0px"
	 viewBox="0 0 48.7 48.7" style="enable-background:new 0 0 48.7 48.7;" xml:space="preserve">
<style type="text/css">
	.svg-pen-st0{fill:#525252;stroke:#525252;stroke-miterlimit:10;}
</style>
<g>
	<path class="svg-pen-st0 svg-stroke svg-fill" d="M45.6,3.1c-4.2-4.2-11-4.2-15.2,0L2.5,31c-0.2,0.2-0.4,0.5-0.4,0.8L0,47.1c-0.1,0.4,0.1,0.9,0.4,1.2
		c0.3,0.3,0.6,0.4,1,0.4c0.1,0,0.1,0,0.2,0l9.2-1.2c0.8-0.1,1.3-0.8,1.2-1.6s-0.8-1.3-1.6-1.2l-7.4,1L4.4,35l11.2,11.2
		c0.3,0.3,0.6,0.4,1,0.4s0.7-0.1,1-0.4l27.9-27.8c2-2,3.2-4.7,3.2-7.6S47.6,5.1,45.6,3.1z M30.9,6.5l4.7,4.7L10.2,36.6L5.5,32
		L30.9,6.5z M16.8,43.1l-4.6-4.6l25.4-25.4l4.6,4.6L16.8,43.1z M44.1,15.7L32.9,4.5c1.4-1.2,3.2-1.8,5.1-1.8c2.1,0,4.1,0.8,5.6,2.3
		s2.3,3.5,2.3,5.6C46,12.5,45.3,14.3,44.1,15.7z"/>
</g>
</svg>
