<?xml version="1.0" encoding="utf-8"?>
<!-- Generator: Adobe Illustrator 21.0.0, SVG Export Plug-In . SVG Version: 6.00 Build 0)  -->
<svg version="1.1"
     id="Calque_1"
     xmlns="http://www.w3.org/2000/svg"
     xmlns:xlink="http://www.w3.org/1999/xlink"
     x="0px"
     y="0px"
	 viewBox="0 0 92.1 92"
     style="enable-background:new 0 0 92.1 92;"
     xml:space="preserve">
<style type="text/css">
	.svg-people-st0{fill:#149914;}
</style>
<g>
	<g>
		<g>
			<path class="svg-people-st0 svg-fill" d="M50.2,1.8C49.1,0.6,47.5,0,45.9,0s-3.2,0.7-4.3,1.8C40.5,3,39.9,4.6,40,6.2l0.3,4.5l0,0
				c0.1,1.8,1.1,3.4,2.5,4.4c0.9,0.6,2,0.9,3,0.9c1.1,0,2.1-0.3,3-0.9c1.5-0.9,2.4-2.6,2.5-4.4l0.3-4.5C51.9,4.6,51.3,3,50.2,1.8z
				 M48.2,6l-0.3,4.5c0,0.6-0.4,1.2-0.9,1.5c-0.6,0.4-1.4,0.4-2,0c-0.5-0.3-0.8-0.9-0.9-1.5L43.8,6c0-0.6,0.2-1.2,0.6-1.6
				c0.4-0.4,1-0.7,1.6-0.7s1.2,0.2,1.6,0.7C48,4.8,48.2,5.4,48.2,6z"/>
		</g>
	</g>
	<g>
		<g>
			<path class="svg-people-st0 svg-fill" d="M60.5,26.8L60,24c-0.7-3.7-3.6-6.7-7.3-7.4c-0.6-0.1-1.1-0.2-1.7-0.2h-1.5c-0.5,0-1,0.2-1.3,0.5
				c-0.6,0.6-1.4,0.9-2.2,0.9s-1.6-0.3-2.2-0.9c-0.3-0.3-0.8-0.5-1.3-0.5H41c-0.6,0-1.1,0.1-1.7,0.2c-3.7,0.7-6.6,3.6-7.3,7.4
				l-0.5,2.8c-0.1,0.5,0,1.1,0.4,1.5c0.3,0.4,0.9,0.7,1.4,0.7h25.4c0.5,0,1.1-0.2,1.4-0.7C60.5,27.9,60.6,27.3,60.5,26.8z
				 M35.5,25.3l0.1-0.7c0.4-2.2,2.2-4,4.4-4.4c0.3-0.1,0.7-0.1,1-0.1h0.8c1.2,0.9,2.6,1.4,4.2,1.4c1.5,0,3-0.5,4.2-1.4H51
				c0.3,0,0.7,0,1,0.1c2.2,0.4,4,2.2,4.4,4.4l0.1,0.7H35.5z"/>
		</g>
	</g>
	<g>
		<g>
			<path class="svg-people-st0 svg-fill" d="M50.2,64.9c-1.1-1.2-2.7-1.8-4.3-1.8s-3.2,0.7-4.3,1.8c-1.1,1.2-1.7,2.8-1.6,4.4l0.3,4.5
				c0.1,1.8,1.1,3.4,2.5,4.4c0.9,0.6,2,0.9,3,0.9c1.1,0,2.1-0.3,3-0.9c1.5-0.9,2.4-2.6,2.5-4.4l0.3-4.5
				C51.9,67.7,51.3,66.1,50.2,64.9z M48.2,69.1l-0.3,4.5c0,0.6-0.4,1.2-0.9,1.5c-0.6,0.4-1.4,0.4-2,0c-0.5-0.3-0.8-0.9-0.9-1.5
				l-0.3-4.5c0-0.6,0.2-1.2,0.6-1.6c0.4-0.4,1-0.7,1.6-0.7s1.2,0.2,1.6,0.7C48,67.9,48.2,68.4,48.2,69.1z"/>
		</g>
	</g>
	<g>
		<g>
			<path class="svg-people-st0 svg-fill" d="M60.5,89.8L60,87c-0.7-3.7-3.6-6.7-7.3-7.4c-0.6-0.1-1.1-0.2-1.7-0.2h-1.5c-0.5,0-1,0.2-1.3,0.5
				c-1.2,1.2-3.2,1.2-4.4,0c-0.3-0.3-0.8-0.5-1.3-0.5H41c-0.6,0-1.1,0.1-1.7,0.2c-3.7,0.7-6.6,3.6-7.3,7.4l-0.5,2.8
				c-0.1,0.5,0,1.1,0.4,1.5c0.3,0.4,0.9,0.7,1.4,0.7h25.4c0.5,0,1.1-0.2,1.4-0.7C60.5,90.9,60.6,90.4,60.5,89.8z M35.5,88.3l0.1-0.7
				c0.4-2.2,2.2-4,4.4-4.4c0.3-0.1,0.7-0.1,1-0.1h0.8c2.4,1.9,5.9,1.9,8.3,0h0.8c0.3,0,0.7,0,1,0.1c2.2,0.4,4,2.2,4.4,4.4l0.1,0.7
				H35.5z"/>
		</g>
	</g>
	<g>
		<g>
			<path class="svg-people-st0 svg-fill" d="M18.7,33.4c-1.1-1.2-2.7-1.9-4.3-1.9s-3.2,0.7-4.3,1.9c-1.1,1.2-1.7,2.8-1.6,4.4l0.3,4.5
				c0.1,1.8,1.1,3.4,2.5,4.4c0.9,0.6,2,0.9,3,0.9s2.1-0.3,3-0.9c1.5-0.9,2.4-2.6,2.5-4.4l0.3-4.5C20.4,36.2,19.8,34.6,18.7,33.4z
				 M16.6,37.5L16.3,42c0,0.6-0.4,1.2-0.9,1.5c-0.6,0.4-1.4,0.4-2,0c-0.5-0.3-0.8-0.9-0.9-1.5l-0.3-4.5c0-0.6,0.2-1.2,0.6-1.6
				c0.4-0.4,1-0.7,1.6-0.7s1.2,0.2,1.6,0.7C16.5,36.3,16.7,36.9,16.6,37.5z"/>
		</g>
	</g>
	<g>
		<g>
			<path class="svg-people-st0 svg-fill" d="M29,58.3l-0.5-2.8c-0.7-3.7-3.6-6.7-7.3-7.4c-0.6-0.1-1.1-0.2-1.7-0.2H18c-0.5,0-1,0.2-1.3,0.5
				c-1.2,1.2-3.2,1.2-4.4,0c-0.3-0.3-0.8-0.5-1.3-0.5H9.5c-0.6,0-1.1,0.1-1.7,0.2c-3.7,0.7-6.6,3.6-7.3,7.4L0,58.3
				c-0.1,0.5,0,1.1,0.4,1.5c0.3,0.4,0.9,0.7,1.4,0.7h25.4c0.5,0,1.1-0.2,1.4-0.7C28.9,59.4,29.1,58.8,29,58.3z M3.9,56.8L4,56.1
				c0.4-2.2,2.2-4,4.4-4.4c0.3-0.1,0.7-0.1,1-0.1h0.8c1.2,0.9,2.6,1.4,4.2,1.4s3-0.5,4.2-1.4h0.8c0.3,0,0.7,0,1,0.1
				c2.2,0.4,4,2.2,4.4,4.4l0.1,0.7H3.9z"/>
		</g>
	</g>
	<g>
		<g>
			<path class="svg-people-st0 svg-fill" d="M81.8,33.4c-1.1-1.2-2.7-1.8-4.3-1.8s-3.2,0.7-4.3,1.9c-1.1,1.2-1.7,2.8-1.6,4.4l0.3,4.5
				c0.1,1.8,1.1,3.4,2.5,4.4c0.9,0.6,2,0.9,3,0.9c1.1,0,2.1-0.3,3-0.9c1.5-0.9,2.4-2.6,2.5-4.4l0.3-4.5
				C83.5,36.2,82.9,34.6,81.8,33.4z M79.7,37.5L79.4,42c0,0.6-0.4,1.2-0.9,1.5c-0.6,0.4-1.4,0.4-2,0c-0.5-0.3-0.8-0.9-0.9-1.5
				l-0.3-4.5c0-0.6,0.2-1.2,0.6-1.6c0.4-0.4,1-0.7,1.6-0.7s1.2,0.2,1.6,0.7C79.5,36.3,79.7,36.9,79.7,37.5z"/>
		</g>
	</g>
	<g>
		<g>
			<path class="svg-people-st0 svg-fill" d="M92,58.3l-0.5-2.8c-0.7-3.7-3.6-6.7-7.3-7.4c-0.6-0.1-1.1-0.2-1.7-0.2H81c-0.5,0-1,0.2-1.3,0.5
				c-1.2,1.2-3.2,1.2-4.4,0c-0.3-0.3-0.8-0.5-1.3-0.5h-1.5c-0.6,0-1.1,0.1-1.7,0.2c-3.7,0.7-6.6,3.6-7.3,7.4L63,58.3
				c-0.1,0.5,0,1.1,0.4,1.5c0.3,0.4,0.9,0.7,1.4,0.7h25.4c0.5,0,1.1-0.2,1.4-0.7C92,59.4,92.1,58.8,92,58.3z M67,56.8l0.1-0.7
				c0.4-2.2,2.2-4,4.4-4.4c0.3-0.1,0.7-0.1,1-0.1h0.8c1.2,0.9,2.6,1.4,4.2,1.4c1.5,0,3-0.5,4.2-1.4h0.8c0.3,0,0.7,0,1,0.1
				c2.2,0.4,4,2.2,4.4,4.4l0.1,0.7H67z"/>
		</g>
	</g>
	<g>
		<g>
			<path class="svg-people-st0 svg-fill" d="M36.4,11.8c-0.3-1-1.4-1.5-2.3-1.2c-7.3,2.5-13.7,7.3-18.2,13.5c-0.6,0.8-0.4,2,0.4,2.6
				c0.3,0.2,0.7,0.3,1.1,0.3c0.6,0,1.1-0.3,1.5-0.8c4-5.6,9.9-10,16.4-12.2C36.3,13.8,36.8,12.8,36.4,11.8z"/>
		</g>
	</g>
	<g>
		<g>
			<path class="svg-people-st0 svg-fill" d="M76.1,24.2c-3.2-4.4-7.3-8.1-12.1-10.8c-0.9-0.5-2-0.2-2.5,0.7c-0.5,0.9-0.2,2,0.7,2.5
				c4.3,2.4,8,5.7,10.9,9.7c0.4,0.5,0.9,0.8,1.5,0.8c0.4,0,0.7-0.1,1.1-0.3C76.5,26.2,76.7,25.1,76.1,24.2z"/>
		</g>
	</g>
	<g>
		<g>
			<path class="svg-people-st0 svg-fill" d="M58.8,11c-0.3-0.1-0.6-0.2-0.9-0.3c-1-0.3-2,0.2-2.3,1.2s0.2,2,1.2,2.3c0.3,0.1,0.6,0.2,0.9,0.3
				c0.2,0.1,0.4,0.1,0.6,0.1c0.7,0,1.4-0.5,1.7-1.2C60.3,12.4,59.8,11.4,58.8,11z"/>
		</g>
	</g>
	<g>
		<g>
			<path class="svg-people-st0 svg-fill" d="M35.3,75.9c-6.5-2.2-12.4-6.5-16.4-12.2c-0.6-0.8-1.7-1-2.6-0.4c-0.8,0.6-1,1.7-0.4,2.6
				c4.5,6.3,11,11.1,18.2,13.5c0.2,0.1,0.4,0.1,0.6,0.1c0.8,0,1.5-0.5,1.7-1.2C36.8,77.3,36.3,76.2,35.3,75.9z"/>
		</g>
	</g>
	<g>
		<g>
			<path class="svg-people-st0 svg-fill" d="M75.7,63.3c-0.8-0.6-2-0.4-2.6,0.4c-4,5.7-9.9,10-16.4,12.2c-1,0.3-1.5,1.4-1.2,2.3c0.3,0.8,1,1.2,1.7,1.2
				c0.2,0,0.4,0,0.6-0.1c7.4-2.5,13.7-7.2,18.2-13.5C76.7,65,76.5,63.9,75.7,63.3z"/>
		</g>
	</g>
</g>
</svg>
