<svg xmlns="http://www.w3.org/2000/svg" viewBox="0 0 98.8 98.76">
    <g>
        <path class="svg-fill" d="M98.38,83.61C92.79,97,79.67,99.38,75.38,99.38c-1.26,0-20.87,1-49.06-25.7C3.64,52.16.87,29,.63,24.63s1-15,15.77-23c1.83-1,5.46-1.42,6.39-.49.42.42,12.82,20.83,13.15,21.51a4.47,4.47,0,0,1,.49,2c0,.93-.67,2.1-2,3.49A33.74,33.74,0,0,1,30.1,32a42.68,42.68,0,0,0-4.34,3.71c-1.32,1.3-2,2.37-2,3.21.09,2.18,1.88,10,15.46,21.92S59.37,76.11,60,76.35a4.7,4.7,0,0,0,1.57.34c.84,0,1.92-.66,3.22-2s5.69-7.34,7.09-8.67,2.57-2,3.5-2a4.47,4.47,0,0,1,2,.49c.68.32,21.11,12.28,21.5,12.68,1.06,1.09.31,4.48-.49,6.4"
              transform="translate(-0.61 -0.62)"/>
    </g>
</svg>