<?xml version="1.0" encoding="utf-8"?>
<!-- Generator: Adobe Illustrator 21.0.0, SVG Export Plug-In . SVG Version: 6.00 Build 0)  -->
<svg version="1.1" id="Calque_1" xmlns="http://www.w3.org/2000/svg" xmlns:xlink="http://www.w3.org/1999/xlink" x="0px" y="0px"
	 viewBox="0 0 64 64.8" style="enable-background:new 0 0 64 64.8;" xml:space="preserve">
<style type="text/css">
	.svg-preparation-st0{fill:#0842B7;}
</style>
<g>
	<g>
		<path class="svg-preparation-st0 svg-fill" d="M41.9,55.9h-9.3c-0.3,0-0.6,0.1-0.8,0.3c-0.2,0.2-0.3,0.5-0.3,0.8v7c0,0.3,0.1,0.6,0.3,0.8
			c0.2,0.2,0.5,0.3,0.8,0.3h9.3c0.3,0,0.6-0.1,0.8-0.3c0.2-0.2,0.3-0.5,0.3-0.8v-7c0-0.3-0.1-0.6-0.3-0.8
			C42.5,56,42.2,55.9,41.9,55.9z"/>
		<path class="svg-preparation-st0 svg-fill" d="M1.1,14h7v50.1c0,0.3,0.1,0.6,0.3,0.8c0.2,0.2,0.5,0.3,0.8,0.3h7c0.3,0,0.6-0.1,0.8-0.3
			c0.2-0.2,0.3-0.5,0.3-0.8V14h7c0.5,0,0.9-0.2,1.1-0.7s0.1-0.9-0.3-1.3L13.6,0.3C13.3,0.1,13.1,0,12.8,0S12.2,0.1,12,0.3L0.4,11.9
			C0.2,12.2,0,12.5,0,12.8c0,0.3,0.1,0.6,0.3,0.8C0.4,13.9,0.7,14,1.1,14z"/>
		<path class="svg-preparation-st0 svg-fill" d="M48.9,37.3H32.6c-0.3,0-0.6,0.1-0.8,0.3c-0.2,0.2-0.3,0.5-0.3,0.8v7c0,0.3,0.1,0.6,0.3,0.8
			c0.2,0.2,0.5,0.3,0.8,0.3h16.3c0.3,0,0.6-0.1,0.8-0.3c0.2-0.2,0.3-0.5,0.3-0.8v-7c0-0.3-0.1-0.6-0.3-0.8S49.2,37.3,48.9,37.3z"/>
		<path class="svg-preparation-st0 svg-fill" d="M63.7,0.3C63.5,0.1,63.2,0,62.9,0H32.6c-0.3,0-0.6,0.1-0.8,0.3c-0.2,0.2-0.3,0.5-0.3,0.8v7
			c0,0.3,0.1,0.6,0.3,0.8c0.2,0.2,0.5,0.3,0.8,0.3h30.3c0.3,0,0.6-0.1,0.8-0.3C63.9,8.7,64,8.4,64,8.1v-7C64,0.8,63.9,0.5,63.7,0.3z
			"/>
		<path class="svg-preparation-st0 svg-fill" d="M55.8,18.6H32.5c-0.3,0-0.6,0.1-0.8,0.3c-0.2,0.2-0.3,0.5-0.3,0.8v7c0,0.3,0.1,0.6,0.3,0.8
			c0.2,0.2,0.5,0.3,0.8,0.3h23.3c0.3,0,0.6-0.1,0.8-0.3c0.2-0.2,0.3-0.5,0.3-0.8v-7c0-0.3-0.1-0.6-0.3-0.8
			C56.5,18.7,56.2,18.6,55.8,18.6z"/>
	</g>
</g>
</svg>
