<?xml version="1.0" encoding="UTF-8"?>
<svg id="Calque_1" data-name="Calque 1" xmlns="http://www.w3.org/2000/svg" viewBox="0 0 108 99.23">
  <defs>
    <style>
      .svg-preparation-cls-1 {
        fill: #3353d7;
      }
    </style>
  </defs>
  <path class="svg-preparation-cls-1 svg-fill" d="M92.26,87.73H23.43c-.66-2.82-2.74-5.1-5.44-6.06V19.13c0-.76-.43-1.45-1.11-1.79L3.91,10.86c-.99-.5-2.19-.09-2.68,.89-.49,.99-.09,2.19,.89,2.68l11.87,5.93v60.91c-4.12,.58-7.3,4.12-7.3,8.39,0,4.68,3.81,8.49,8.49,8.49,3.97,0,7.3-2.74,8.22-6.43H90.26v4.43c0,1.1,.9,2,2,2s2-.9,2-2v-6.43c0-1.1-.9-2-2-2Zm-77.08,6.43c-2.47,0-4.49-2.01-4.49-4.49s2.01-4.49,4.49-4.49,4.49,2.01,4.49,4.49-2.01,4.49-4.49,4.49Z"/>
  <g>
    <path class="svg-preparation-cls-1 svg-fill" d="M46.9,56.25h4.93c1.1,0,2-.9,2-2s-.9-2-2-2h-4.93c-1.1,0-2,.9-2,2s.9,2,2,2Z"/>
    <path class="svg-preparation-cls-1 svg-fill" d="M89.25,41.86c0-1.1-.9-2-2-2s-2,.9-2,2v15.86h-25.96V31.95h7.22c-.01,.08-.03,.17-.03,.25v6.22c0,1.1,.9,2,2,2h5.59c1.1,0,2-.9,2-2s-.9-2-2-2h-3.59v-4.22c0-.7-.36-1.31-.9-1.67,.06-.19,.1-.38,.1-.59,0-1.1-.9-2-2-2h-10.17c-.08,0-.15,.02-.22,.02-.07,0-.15-.02-.22-.02H27.56c-1.23,0-2.22,1-2.22,2.22v29.51s.01,.09,.01,.13c0,.04-.01,.09-.01,.13v29.51c0,1.23,1,2.22,2.22,2.22h29.51c.08,0,.15-.02,.22-.02,.07,0,.15,.02,.22,.02h29.51c1.23,0,2.22-1,2.22-2.22v-29.51s-.01-.09-.01-.13c0-.04,.01-.09,.01-.13v-17.82Zm-18.76,20.04h3.2v4.29h-3.2v-4.29Zm-29.96,0h3.2v4.29h-3.2v-4.29Zm3.2-29.96v4.48h-3.2v-4.48h3.2Zm-7.2,0v6.48c0,1.1,.9,2,2,2h7.2c1.1,0,2-.9,2-2v-6.48h7.56v25.77H29.34V31.95h7.19Zm-7.19,29.96h7.19v6.29c0,1.1,.9,2,2,2h7.2c1.1,0,2-.9,2-2v-6.29h7.56v25.77H29.34v-25.77Zm29.96,25.77v-25.77h7.19v6.29c0,1.1,.9,2,2,2h7.2c1.1,0,2-.9,2-2v-6.29h7.56v25.77h-25.96Z"/>
    <path class="svg-preparation-cls-1 svg-fill" d="M74.85,54.25c0,1.1,.9,2,2,2h4.93c1.1,0,2-.9,2-2s-.9-2-2-2h-4.93c-1.1,0-2,.9-2,2Z"/>
    <path class="svg-preparation-cls-1 svg-fill" d="M51.83,82.03h-4.93c-1.1,0-2,.9-2,2s.9,2,2,2h4.93c1.1,0,2-.9,2-2s-.9-2-2-2Z"/>
    <path class="svg-preparation-cls-1 svg-fill" d="M81.79,82.03h-4.93c-1.1,0-2,.9-2,2s.9,2,2,2h4.93c1.1,0,2-.9,2-2s-.9-2-2-2Z"/>
  </g>
  <g>
    <path class="svg-preparation-cls-1 svg-fill" d="M83.99,32.05c-.52,0-1.03-.2-1.4-.58l-5.74-5.66c-.79-.78-.8-2.04-.02-2.83,.78-.79,2.04-.8,2.83-.02l3.91,3.85,7.62-12.96c.56-.95,1.79-1.27,2.74-.71,.95,.56,1.27,1.79,.71,2.74l-8.92,15.17c-.31,.53-.85,.89-1.46,.97-.09,.01-.17,.02-.26,.02Z"/>
    <path class="svg-preparation-cls-1 svg-fill" d="M85.59,43.86c-11.8,0-21.4-9.6-21.4-21.4S73.79,1.07,85.59,1.07s21.4,9.6,21.4,21.4-9.6,21.4-21.4,21.4Zm0-38.79c-9.59,0-17.4,7.8-17.4,17.4s7.8,17.4,17.4,17.4,17.4-7.8,17.4-17.4-7.8-17.4-17.4-17.4Z"/>
  </g>
</svg>