<svg xmlns="http://www.w3.org/2000/svg" viewBox="0 0 100 100">
    <defs>
        <style>.svg-printer-cls-1 {
            fill: #3353d7;
        }</style>
    </defs>
    <g>
        <path class="svg-printer-cls-1 svg-fill"
              d="M30.75,3.09H69.25A7.74,7.74,0,0,1,77,10.83V26.08a0,0,0,0,1,0,0H23a0,0,0,0,1,0,0V10.83A7.74,7.74,0,0,1,30.75,3.09Z"/>
        <path class="svg-printer-cls-1 svg-fill"
              d="M89.4,32.64H10.6a7.75,7.75,0,0,0-7.74,7.74V68.11a7.74,7.74,0,0,0,7.74,7.74h9.64V86.17A10.74,10.74,0,0,0,31,96.91H69A10.74,10.74,0,0,0,79.76,86.17V75.85H89.4a7.74,7.74,0,0,0,7.74-7.74V40.38A7.75,7.75,0,0,0,89.4,32.64ZM73.76,75.85V86.17A4.74,4.74,0,0,1,69,90.91H31a4.74,4.74,0,0,1-4.74-4.74V65.68A4.74,4.74,0,0,1,31,60.94H69a4.74,4.74,0,0,1,4.74,4.74ZM87.11,46.78a3.45,3.45,0,1,1,3.45-3.45A3.46,3.46,0,0,1,87.11,46.78Z"/>
    </g>
</svg>
