<?xml version="1.0" encoding="utf-8"?>
<svg xmlns="http://www.w3.org/2000/svg" xmlns:xlink="http://www.w3.org/1999/xlink" x="0px" y="0px"
	 viewBox="0 0 100 100" style="enable-background:new 0 0 100 100;" xml:space="preserve">
<g id="général">
	<path class="svg-fill" d="M50,0C22.4,0,0,22.4,0,50s22.4,50,50,50s50-22.4,50-50S77.6,0,50,0z M49.6,81.1c-2.2,0-4-1.8-4-4v0c0-2.2,1.8-4,4-4
		s4,1.8,4,4S51.8,81.1,49.6,81.1L49.6,81.1z M56.3,52.6c-1.6,0.7-2.7,2.4-2.7,4.2v7.3c0,2.2-1.8,4-4,4s-4-1.8-4-4v-7.3
		c0-5.1,3-9.6,7.5-11.6c3.5-1.5,5.7-5,5.5-8.8c-0.2-4.5-4-8.3-8.5-8.5c-2.5-0.1-4.9,0.7-6.7,2.5c-1.8,1.7-2.8,4-2.8,6.5
		c0,2.2-1.8,4-4,4s-4-1.8-4-4c0-4.6,1.9-9.1,5.3-12.3c3.4-3.2,7.9-4.9,12.6-4.6c8.6,0.5,15.6,7.5,16.1,16.1
		C67,43.2,62.8,49.8,56.3,52.6L56.3,52.6z"/>
</g>
</svg>
