<?xml version="1.0" encoding="utf-8"?>
<!-- Generator: Adobe Illustrator 21.0.0, SVG Export Plug-In . SVG Version: 6.00 Build 0)  -->
<svg version="1.1"
     id="Calque_1" xmlns="http://www.w3.org/2000/svg" xmlns:xlink="http://www.w3.org/1999/xlink" x="0px" y="0px"
	 viewBox="0 0 47.2 47.3" style="enable-background:new 0 0 47.2 47.3;" xml:space="preserve">
<style type="text/css">
	.svg-refresh-st0{fill:#FFFFFF;}
</style>
<g>
	<g>
		<path class="svg-refresh-st0 svg-fill" d="M43.2,36.3c-4.2,6.9-11.2,11-18.7,11c-6.4,0-12.2-3-16.3-7.7l-1.5,0.9l-5.3,3.3C1.2,44,0.9,44,0.7,43.9
			s-0.4-0.2-0.6-0.5C0,43.2,0,42.9,0,42.5l3.7-14.4c0.1-0.3,0.2-0.5,0.5-0.6c0.2-0.1,0.5-0.2,0.7-0.1l13,4.1
			c0.4,0.1,0.6,0.5,0.7,0.9c0.1,0.5-0.1,0.8-0.5,1.1l-4.7,2.9l-0.3,0.2c3,2.9,6.9,4.7,11.2,4.7c5.7,0,10.9-3.1,14.1-8.4
			c0.8-1.4,2.6-1.8,3.8-0.8C43.7,33,44.1,34.9,43.2,36.3z"/>
		<path class="svg-refresh-st0 svg-fill" d="M4,11C8.2,4.1,15.2,0,22.7,0C29.1,0,34.9,3,39,7.7l1.5-0.9l5.3-3.3c0.2-0.2,0.5-0.2,0.7-0.1s0.4,0.2,0.6,0.5
			c0.1,0.2,0.1,0.5,0.1,0.9l-3.9,14.4c-0.1,0.3-0.2,0.5-0.5,0.6C42.7,20,42.4,20,42.1,20l-13-4.1c-0.4-0.1-0.6-0.5-0.7-0.9
			c-0.1-0.5,0.1-0.8,0.5-1.1l4.7-2.9l0.3-0.2c-3-2.9-6.9-4.7-11.2-4.7c-5.7,0-10.9,3.1-14.1,8.4c-0.8,1.4-2.6,1.8-3.8,0.8
			C3.4,14.3,3.1,12.4,4,11z"/>
	</g>
</g>
</svg>
