<svg id="Calque_1" data-name="Calque 1" xmlns="http://www.w3.org/2000/svg" viewBox="0 0 108 99.23">
    <defs>
        <style>.cls-1 {
            fill: #6433d7;
        }</style>
    </defs>
    <path class="cls-1 svg-fill"
          d="M77,70.83a2,2,0,0,0,1.23.43,1.84,1.84,0,0,0,.47-.06L87.59,69a2,2,0,0,0,1.53-2V55.26a2,2,0,0,0-2.24-2L78,54.39a2,2,0,0,0-1.76,2V69.26A2,2,0,0,0,77,70.83ZM80.2,58.14l4.92-.62v8L80.2,66.71Z"/>
    <path class="cls-1 svg-fill"
          d="M105.64,38.8,94.51,19.53a2.27,2.27,0,0,0-.33-.42L94.09,19a1.8,1.8,0,0,0-.43-.29h0a1.84,1.84,0,0,0-.47-.15l-.14,0-.13,0L54.2,16h-.27L15.09,18.53l-.13,0-.15,0a1.7,1.7,0,0,0-.45.15h0a2,2,0,0,0-.42.29l-.09.08a2.27,2.27,0,0,0-.33.42L2.36,38.8a2,2,0,0,0-.1,1.79,2,2,0,0,0,1.38,1.15L13.33,44V72.07A2,2,0,0,0,14.86,74L53.6,83.22a2.5,2.5,0,0,0,.47,0,2,2,0,0,0,.47-.06l38.71-9.38a2,2,0,0,0,1.53-2V44l9.58-2.25a2,2,0,0,0,1.38-1.15A2,2,0,0,0,105.64,38.8ZM54.07,20l17.68,1.18L54,23.35,36.28,21.14ZM16.29,22.68,50.62,27l-11.56,19L7.17,38.46Zm1,22.27,22.22,5.2a1.85,1.85,0,0,0,.46.05,2,2,0,0,0,1.71-1l10.35-17V78.74L17.33,70.49ZM90.78,70.31,56.07,78.73V32.48L66.28,49.25a2,2,0,0,0,1.71,1,1.85,1.85,0,0,0,.46-.05l22.33-5.23ZM68.94,45.93,57.38,27l34.33-4.28,9.12,15.78Z"/>
</svg>