<svg xmlns="http://www.w3.org/2000/svg" xmlns:xlink="http://www.w3.org/1999/xlink"
	 viewBox="0 0 100 73" width="73px" height="73px">
    <style type="text/css">
        .svg-scan-photo-st0 {
            fill: #1C328E;
        }

        .svg-scan-photo-st1 {
            fill: #FFFFFF;
        }
    </style>
    <g>
        <path class="svg-scan-photo-st0 svg-fill" d="M68.2,29.5H50.6l0,0l-2.8-4.7c-0.6-1-1.7-1.6-2.8-1.6H26.5c-1.2,0-2.2,0.6-2.8,1.6l-2.8,4.7l0,0H3.3
            c-1.8,0-3.3,1.5-3.3,3.3v37C0,71.5,1.5,73,3.3,73h64.9c1.8,0,3.3-1.5,3.3-3.3V32.8C71.4,31,70,29.5,68.2,29.5z"/>
        <path class="svg-scan-photo-st1" d="M35.7,65.3c-7.6,0-13.7-6.1-13.7-13.7s6.1-13.7,13.7-13.7S49.4,44,49.4,51.6c0,0,0,0,0,0
            C49.4,59.2,43.3,65.3,35.7,65.3z M35.7,42.3c-5.2,0-9.3,4.2-9.3,9.3s4.2,9.3,9.3,9.3s9.3-4.2,9.3-9.3l0,0
            C45,46.4,40.8,42.3,35.7,42.3L35.7,42.3z"/>
        <path class="svg-scan-photo-st1"
              d="M65.3,38.5h-5.1c-1.2,0-2.2-1-2.2-2.2s1-2.2,2.2-2.2h5.1c1.2,0,2.2,1,2.2,2.2S66.5,38.5,65.3,38.5z"/>
        <path class="svg-scan-photo-st0 svg-fill"
              d="M55,26.2c-1.2,0-2.2-1-2.2-2.2V2.2C52.8,1,53.8,0,55,0c1.2,0,2.2,1,2.2,2.2V24C57.2,25.3,56.2,26.2,55,26.2z"
        />
        <path class="svg-scan-photo-st0 svg-fill"
              d="M71.5,26.2c-1.2,0-2.2-1-2.2-2.2V2.2c0-1.2,1-2.2,2.2-2.2s2.2,1,2.2,2.2V24C73.7,25.3,72.7,26.2,71.5,26.2z"/>
        <path class="svg-scan-photo-st0 svg-fill"
              d="M78.4,26.2c-1.2,0-2.2-1-2.2-2.2V2.2c0-1.2,1-2.2,2.2-2.2s2.2,1,2.2,2.2V24C80.6,25.3,79.6,26.2,78.4,26.2z"/>
        <path class="svg-scan-photo-st0 svg-fill" d="M61.8,0h2.9c1.2,0,2.2,1,2.2,2.2V24c0,1.2-1,2.2-2.2,2.2h-2.9c-1.2,0-2.2-1-2.2-2.2V2.2C59.6,1,60.6,0,61.8,0z
        "/>
        <path class="svg-scan-photo-st0 svg-fill"
              d="M85.2,0h2.9c1.2,0,2.2,1,2.2,2.2V24c0,1.2-1,2.2-2.2,2.2h-2.9c-1.2,0-2.2-1-2.2-2.2V2.2C83,1,84,0,85.2,0z"/>
        <path class="svg-scan-photo-st0 svg-fill"
              d="M94.9,0h2.9C99,0,100,1,100,2.2V24c0,1.2-1,2.2-2.2,2.2h-2.9c-1.2,0-2.2-1-2.2-2.2V2.2C92.8,1,93.7,0,94.9,0z"
        />
    </g>
</svg>
