<?xml version="1.0" encoding="utf-8"?>
<!-- Generator: Adobe Illustrator 21.0.0, SVG Export Plug-In . SVG Version: 6.00 Build 0)  -->
<svg version="1.1" id="Calque_1" xmlns="http://www.w3.org/2000/svg" xmlns:xlink="http://www.w3.org/1999/xlink" x="0px" y="0px"
	 viewBox="0 0 60 47.3" style="enable-background:new 0 0 60 47.3;" xml:space="preserve">
<style type="text/css">
	.svg-scan-st0{fill:#FFFFFF;}
</style>
<g>
	<g>
		<g>
			<path class="svg-scan-st0 svg-fill" d="M10,0H2C0.9,0,0,0.9,0,2v7.9c0,1.1,0.9,2,2,2s2-0.9,2-2V4h6c1.1,0,2-0.9,2-2S11.1,0,10,0z"/>
		</g>
	</g>
	<g>
		<g>
			<path class="svg-scan-st0 svg-fill" d="M58,35.4c-1.1,0-2,0.9-2,2v5.9h-6c-1.1,0-2,0.9-2,2s0.9,2,2,2h8c1.1,0,2-0.9,2-2v-7.9
				C60,36.3,59.1,35.4,58,35.4z"/>
		</g>
	</g>
	<g>
		<g>
			<path class="svg-scan-st0 svg-fill" d="M58,0h-8c-1.1,0-2,0.9-2,2s0.9,2,2,2h6v5.9c0,1.1,0.9,2,2,2c1.1,0,2-0.9,2-2V2C60,0.9,59.1,0,58,0z"/>
		</g>
	</g>
	<g>
		<g>
			<path class="svg-scan-st0 svg-fill" d="M10,43.3H4v-5.9c0-1.1-0.9-2-2-2s-2,0.9-2,2v7.9c0,1.1,0.9,2,2,2h8c1.1,0,2-0.9,2-2
				C12,44.1,11.1,43.3,10,43.3z"/>
		</g>
	</g>
	<g>
		<g>
			<rect x="13.5" y="5" class="svg-scan-st0 svg-fill" width="4.7" height="27.9"/>
		</g>
	</g>
	<g>
		<g>
			<rect x="22.9" y="5" class="svg-scan-st0 svg-fill" width="4.7" height="27.9"/>
		</g>
	</g>
	<g>
		<g>
			<rect x="32.4" y="5" class="svg-scan-st0 svg-fill" width="4.7" height="37.2"/>
		</g>
	</g>
	<g>
		<g>
			<rect x="41.8" y="5" class="svg-scan-st0 svg-fill" width="4.7" height="27.9"/>
		</g>
	</g>
	<g>
		<g>
			<rect x="13.5" y="37.5" class="svg-scan-st0 svg-fill" width="4.7" height="4.6"/>
		</g>
	</g>
	<g>
		<g>
			<rect x="22.9" y="37.5" class="svg-scan-st0 svg-fill" width="4.7" height="4.6"/>
		</g>
	</g>
	<g>
		<g>
			<rect x="41.8" y="37.5" class="svg-scan-st0 svg-fill" width="4.7" height="4.6"/>
		</g>
	</g>
</g>
</svg>
