<?xml version="1.0" encoding="utf-8"?>
<!-- Generator: Adobe Illustrator 21.0.0, SVG Export Plug-In . SVG Version: 6.00 Build 0)  -->
<svg version="1.1"
     id="Calque_1" xmlns="http://www.w3.org/2000/svg" xmlns:xlink="http://www.w3.org/1999/xlink" x="0px" y="0px"
	 viewBox="0 0 48.2 48.2" style="enable-background:new 0 0 48.2 48.2;" xml:space="preserve">
<style type="text/css">
	.svg-search-st0{fill:#000;}
</style>
<g>
	<path class="svg-search-st0 svg-fill" d="M32.3,5.6C24.9-1.9,13-1.9,5.5,5.6c-7.4,7.4-7.4,19.3,0,26.7c6.5,6.5,16.8,7.2,24.1,2.1c0.2,0.7,0.5,1.4,1.1,2
		L41.5,47c1.6,1.6,4.1,1.6,5.6,0c1.6-1.6,1.6-4.1,0-5.6L36.3,30.7c-0.6-0.6-1.3-0.9-2-1.1C39.5,22.3,38.9,12.1,32.3,5.6z M28.9,28.9
		c-5.5,5.5-14.4,5.5-19.9,0S3.5,14.5,9,9s14.4-5.5,19.9,0C34.4,14.4,34.4,23.4,28.9,28.9z"/>
</g>
</svg>
