<?xml version="1.0" encoding="UTF-8"?>
<svg id="Calque_1" data-name="Calque 1" xmlns="http://www.w3.org/2000/svg" viewBox="0 0 108 99.23">
	<defs>
		<style>
			.svg-transfer-cls-1 {
				fill: #a5d733;
			}
		</style>
	</defs>
	<path class="svg-transfer-cls-1 svg-fill" d="M105.87,58.01l-26.21-19.97c-.61-.46-1.42-.54-2.1-.2-.68,.34-1.11,1.03-1.11,1.79v8.01H29.55c-1.1,0-2,.9-2,2v5.92L6.64,39.63l20.91-15.94v5.98c0,1.1,.9,2,2,2h35.23c1.1,0,2-.9,2-2s-.9-2-2-2H31.55v-8.01c0-.76-.43-1.46-1.11-1.79-.68-.34-1.49-.26-2.1,.2L2.13,38.04c-.5,.38-.79,.97-.79,1.59s.29,1.21,.79,1.59l26.21,19.97c.36,.27,.78,.41,1.21,.41,.3,0,.61-.07,.89-.21,.68-.34,1.11-1.03,1.11-1.79v-7.96h46.9c1.1,0,2-.9,2-2v-5.98l20.91,15.94-20.91,15.94v-5.97c0-1.1-.9-2-2-2H41.12c-1.1,0-2,.9-2,2s.9,2,2,2h35.33v8.01c0,.76,.43,1.46,1.11,1.79,.28,.14,.58,.21,.89,.21,.43,0,.86-.14,1.21-.41l26.21-19.97c.5-.38,.79-.97,.79-1.59s-.29-1.21-.79-1.59Z"/>
</svg>