<?xml version="1.0" encoding="utf-8"?>
<!-- Generator: Adobe Illustrator 21.0.0, SVG Export Plug-In . SVG Version: 6.00 Build 0)  -->
<svg version="1.1" id="Calque_1" xmlns="http://www.w3.org/2000/svg" xmlns:xlink="http://www.w3.org/1999/xlink" x="0px" y="0px"
	 viewBox="0 0 88 88.2" style="enable-background:new 0 0 88 88.2;" xml:space="preserve">
<style type="text/css">
	.svg-stock-transfer-st0{fill:#149914;}
</style>
<g>
	<path class="svg-stock-transfer-st0 svg-fill" d="M0.1,69.9L0,29.8c0-2,2-3.3,3.8-2.5l36.5,15.6c1,0.4,1.7,1.4,1.7,2.5l0.1,40.1c0,2-2,3.3-3.8,2.5L1.8,72.4
		C0.7,72,0.1,71,0.1,69.9z M83.7,31.6L50,46.2l0.1,37.1l33.7-14.6L83.7,31.6 M85.1,26.8c1.4,0,2.7,1.2,2.8,2.7L88,69.6
		c0,1.1-0.6,2.1-1.7,2.5L49.9,87.9c-0.4,0.2-0.7,0.2-1.1,0.2c-1.4,0-2.7-1.2-2.8-2.7l-0.1-40.1c0-1.1,0.6-2.1,1.7-2.5L84,27
		C84.3,26.9,84.7,26.8,85.1,26.8L85.1,26.8z M43.7,4.2l-35,15.6l35,15.4l35-15.6L43.7,4.2 M43.7,0c0.4,0,0.8,0.1,1.1,0.2l38.4,16.9
		c2.2,1,2.2,4.1,0,5L44.9,39.3c-0.4,0.2-0.7,0.2-1.1,0.2c-0.4,0-0.8-0.1-1.1-0.2L4.3,22.4c-2.2-1-2.2-4.1,0-5L42.6,0.3
		C42.9,0,43.3,0,43.7,0L43.7,0z"/>
</g>
</svg>
