<?xml version="1.0" encoding="utf-8"?>
<!-- Generator: Adobe Illustrator 21.0.0, SVG Export Plug-In . SVG Version: 6.00 Build 0)  -->
<svg version="1.1" id="Calque_1" xmlns="http://www.w3.org/2000/svg" xmlns:xlink="http://www.w3.org/1999/xlink" x="0px" y="0px"
	 viewBox="0 0 89.3 87.6" style="enable-background:new 0 0 89.3 87.6;" xml:space="preserve">
<style type="text/css">
	.svg-stock-st0{fill:#ED1D1D;}
</style>
<g>
	<g>
		<path class="svg-stock-st0 svg-fill" d="M89.3,31.2v-3h-5.9V7.4c0-0.8-0.7-1.5-1.5-1.5l0,0H49.2c-0.8,0-1.5,0.7-1.5,1.5l0,0v20.8h-4.5V7.4
			c0-0.8-0.7-1.5-1.5-1.5l0,0H9c-0.8,0-1.5,0.7-1.5,1.5l0,0v20.8H3V0H0v86.1c0,0.8,0.7,1.5,1.5,1.5l0,0h87.6v-3h-5.9V63.8
			c0-0.8-0.7-1.5-1.5-1.5l0,0H49c-0.8,0-1.5,0.7-1.5,1.5l0,0v20.8H43V63.8c0-0.8-0.7-1.5-1.5-1.5l0,0H8.8c-0.8,0-1.5,0.7-1.5,1.5
			l0,0v20.8H2.8V59.4h86.1v-3H83V35.6c0-0.8-0.7-1.5-1.5-1.5l0,0H48.8c-0.8,0-1.5,0.7-1.5,1.5l0,0v20.8h-4.5V35.6
			c0-0.8-0.7-1.5-1.5-1.5l0,0H8.6c-0.8,0-1.5,0.7-1.5,1.5l0,0v20.8H2.6V31.2L89.3,31.2L89.3,31.2z M62.5,8.9h5.9v5.9h-5.9V8.9z
			 M50.7,8.9h8.9v7.4c0,0.8,0.7,1.5,1.5,1.5l0,0H70c0.8,0,1.5-0.7,1.5-1.5l0,0V8.9h8.9v19.3H50.7L50.7,8.9L50.7,8.9z M22.5,8.9h5.9
			v5.9h-5.9V8.9z M10.6,8.9h8.9v7.4c0,0.8,0.7,1.5,1.5,1.5l0,0h8.9c0.8,0,1.5-0.7,1.5-1.5l0,0V8.9h8.9v19.3H10.6L10.6,8.9L10.6,8.9z
			 M62.5,65.3h5.9v5.9h-5.9V65.3z M50.7,65.3h8.9v7.4c0,0.8,0.7,1.5,1.5,1.5l0,0H70c0.8,0,1.5-0.7,1.5-1.5l0,0v-7.4h8.9v19.3H50.7
			L50.7,65.3L50.7,65.3z M22.5,65.3h5.9v5.9h-5.9V65.3z M10.6,65.3h8.9v7.4c0,0.8,0.7,1.5,1.5,1.5l0,0h8.9c0.8,0,1.5-0.7,1.5-1.5
			l0,0v-7.4h8.9v19.3H10.6L10.6,65.3L10.6,65.3z M62.5,38.6h5.9v5.9h-5.9V38.6z M50.7,37.1h8.9V46c0,0.8,0.7,1.5,1.5,1.5l0,0H70
			c0.8,0,1.5-0.7,1.5-1.5l0,0v-8.9h8.9v19.3H50.7L50.7,37.1L50.7,37.1z M22.5,37.1h5.9V43h-5.9V37.1z M10.6,37.1h8.9v7.4
			c0,0.8,0.7,1.5,1.5,1.5l0,0h8.9c0.8,0,1.5-0.7,1.5-1.5l0,0v-7.4h8.9v19.3H10.6L10.6,37.1L10.6,37.1z"/>
	</g>
</g>
</svg>
