<svg data-name="Calque 1" xmlns="http://www.w3.org/2000/svg" viewBox="0 0 108 99.23">
    <defs>
        <style>.svg-track-cls-1 {
            fill: #6433d7;
        }</style>
    </defs>
    <path class="svg-fill svg-track-cls-1"
          d="M106.05,57.35c0-.05,0-.09,0-.14a2.73,2.73,0,0,0-.1-.41.19.19,0,0,1,0-.07,2,2,0,0,0-.25-.43s0,0,0,0l-20-25.9a2,2,0,0,0-1.58-.77H35.88c2.19-4.36,3.87-8.83,3.87-12.3a15.85,15.85,0,0,0-31.7,0c0,3.47,1.67,7.94,3.86,12.3h-8a2,2,0,0,0-2,2V83.38a2,2,0,0,0,2,2h8.28c0,.23,0,.46,0,.69a11.71,11.71,0,0,0,23.42,0c0-.23,0-.46,0-.69H75.88c0,.23,0,.46,0,.69a11.71,11.71,0,1,0,23.42,0c0-.23,0-.46,0-.69h4.83a2,2,0,0,0,2-2V57.48S106.05,57.4,106.05,57.35ZM23.9,5.44A11.87,11.87,0,0,1,35.75,17.29c0,6.09-7.18,17.64-11.85,24.16-4.68-6.52-11.85-18.07-11.85-24.16A11.86,11.86,0,0,1,23.9,5.44ZM13,31.63l0-.05ZM23.9,93.78a7.71,7.71,0,1,1,7.71-7.71A7.71,7.71,0,0,1,23.9,93.78Zm44.93-36.3v23.9H34.62a11.7,11.7,0,0,0-21.44,0H5.94V33.59h8.13a124.71,124.71,0,0,0,7.83,11.9,2.48,2.48,0,0,0,4,0,125.41,125.41,0,0,0,7.83-11.91H68.83Zm-34-25.9,0,.05Zm38,2H83.07L100,55.48H72.83ZM87.56,93.78a7.71,7.71,0,1,1,7.71-7.71A7.71,7.71,0,0,1,87.56,93.78Zm14.5-12.4H98.28a11.7,11.7,0,0,0-21.44,0h-4V59.48h29.23Z"/>
    <path class="svg-fill svg-track-cls-1"
          d="M31.3,17.29a7.4,7.4,0,1,0-7.4,7.4A7.41,7.41,0,0,0,31.3,17.29Zm-10.8,0a3.4,3.4,0,1,1,3.4,3.4A3.4,3.4,0,0,1,20.5,17.29Z"/>
</svg>
