<?xml version="1.0" encoding="utf-8"?>
<!-- Generator: Adobe Illustrator 21.0.0, SVG Export Plug-In . SVG Version: 6.00 Build 0)  -->
<svg version="1.1" id="Calque_1" xmlns="http://www.w3.org/2000/svg" xmlns:xlink="http://www.w3.org/1999/xlink" x="0px" y="0px"
	 viewBox="0 0 90.2 90.2" style="enable-background:new 0 0 90.2 90.2;" xml:space="preserve">
<style type="text/css">
	.svg-tracking-st0{fill:#0842B7;}
</style>
<g>
	<path class="svg-tracking-st0 svg-fill" d="M61,26.6H29.2c-1.5,0-2.6,1.2-2.6,2.6V61c0,1.5,1.2,2.6,2.6,2.6H61c1.5,0,2.6-1.2,2.6-2.6V29.3
		C63.6,27.8,62.5,26.6,61,26.6z M42.5,31.9h5.3v5.3h-5.3V31.9z M58.4,58.4H31.9V31.9h5.3v7.9c0,1.5,1.2,2.6,2.6,2.6h10.6
		c1.5,0,2.6-1.2,2.6-2.6v-7.9h5.3L58.4,58.4L58.4,58.4z"/>
	<path class="svg-tracking-st0 svg-fill" d="M87.6,42.5h-8.2c-1.3-16.9-14.8-30.4-31.7-31.7V2.6c0-1.5-1.2-2.6-2.6-2.6c-1.5,0-2.6,1.2-2.6,2.6v8.2
		c-16.9,1.3-30.4,14.8-31.7,31.7H2.6c-1.5,0-2.6,1.2-2.6,2.6c0,1.5,1.2,2.6,2.6,2.6h8.2c1.3,16.9,14.8,30.4,31.7,31.7v8.2
		c0,1.5,1.2,2.6,2.6,2.6c1.5,0,2.6-1.2,2.6-2.6v-8.2c16.9-1.3,30.4-14.8,31.7-31.7h8.2c1.5,0,2.6-1.2,2.6-2.6
		C90.3,43.7,89.1,42.5,87.6,42.5z M47.8,74.1v-2.5c0-1.5-1.2-2.6-2.6-2.6c-1.5,0-2.6,1.2-2.6,2.6v2.5c-13.9-1.3-25.1-12.4-26.3-26.3
		h2.5c1.5,0,2.6-1.2,2.6-2.6c0-1.5-1.2-2.6-2.6-2.6h-2.5c1.3-13.9,12.4-25.1,26.3-26.3v2.5c0,1.5,1.2,2.6,2.6,2.6
		c1.5,0,2.6-1.2,2.6-2.6v-2.5c13.9,1.3,25.1,12.4,26.3,26.3h-2.5c-1.5,0-2.6,1.2-2.6,2.6c0,1.5,1.2,2.6,2.6,2.6h2.5
		C72.8,61.7,61.7,72.9,47.8,74.1z"/>
	<path class="svg-tracking-st0 svg-fill" d="M8.1,21.3c1.5,0,2.6-1.2,2.6-2.6v-7.9h7.9c1.5,0,2.6-1.2,2.6-2.6c0-1.5-1.2-2.6-2.6-2.6H8
		c-1.5,0-2.6,1.2-2.6,2.6v10.6C5.4,20.1,6.6,21.3,8.1,21.3z"/>
	<path class="svg-tracking-st0 svg-fill" d="M18.7,79.5h-8v-7.9c0-1.5-1.2-2.6-2.6-2.6s-2.6,1.2-2.6,2.6v10.6c0,1.5,1.2,2.6,2.6,2.6h10.6
		c1.5,0,2.6-1.2,2.6-2.6S20.1,79.5,18.7,79.5z"/>
	<path class="svg-tracking-st0 svg-fill" d="M82.2,69c-1.5,0-2.6,1.2-2.6,2.6v7.9h-7.9c-1.5,0-2.6,1.2-2.6,2.6s1.2,2.6,2.6,2.6h10.6c1.5,0,2.6-1.2,2.6-2.6
		V71.5C84.8,70.1,83.6,69,82.2,69z"/>
	<path class="svg-tracking-st0 svg-fill" d="M71.6,10.7h7.9v7.9c0,1.5,1.2,2.6,2.6,2.6s2.6-1.2,2.6-2.6V8c0-1.5-1.2-2.6-2.6-2.6H71.5
		c-1.5,0-2.6,1.2-2.6,2.6C68.9,9.6,70.1,10.7,71.6,10.7z"/>
</g>
</svg>
