<?xml version="1.0" encoding="utf-8"?>
<!-- Generator: Adobe Illustrator 21.0.0, SVG Export Plug-In . SVG Version: 6.00 Build 0)  -->
<svg version="1.1" id="Calque_1" xmlns="http://www.w3.org/2000/svg" xmlns:xlink="http://www.w3.org/1999/xlink" x="0px" y="0px"
	 viewBox="0 0 46 46" style="enable-background:new 0 0 46 46;" xml:space="preserve">
<style type="text/css">
	#svg-trash .st0{fill:#41464A;}
</style>
<g id="svg-trash">
	<g>
		<g>
			<g>
				<g>
					<polygon class="st0" points="31.8,15.9 28.2,15.7 27.4,37 31,37.2 					"/>
					<rect x="21.2" y="15.8" class="st0" width="3.6" height="21.3"/>
					<polygon class="st0" points="18.6,37 17.8,15.7 14.2,15.9 15,37.2 					"/>
					<path class="st0" d="M1.6,6.9v3.6h3.8l3,33.8c0.1,0.9,0.9,1.6,1.8,1.6h25.8c0.9,0,1.7-0.7,1.8-1.6l3-33.8h3.8V6.9H1.6z
						 M34.2,42.4H11.7L8.9,10.5H37L34.2,42.4z"/>
				</g>
			</g>
		</g>
	</g>
	<g>
		<g>
			<g>
				<path class="st0" d="M28.9,0H17.1c-1.7,0-3,1.3-3,3v5.7h3.6V3.6h10.6v5.1h3.6V3C31.9,1.3,30.5,0,28.9,0z"/>
			</g>
		</g>
	</g>
</g>
</svg>
