<svg xmlns="http://www.w3.org/2000/svg" viewBox="0 0 86 99.56">
    <path fill="#d73353" d="M6.72,20.78v74.5a4.52,4.52,0,0,0,4.5,4.5H74.78a4.52,4.52,0,0,0,4.5-4.5V20.78Z"
          transform="translate(0 -0.22)"/>
    <path fill="#d73353"
          d="M83.5,10.28H58V2.72A2.5,2.5,0,0,0,55.5.22H30.55a2.5,2.5,0,0,0-2.5,2.5v7.56H2.5a2.5,2.5,0,0,0,0,5h81a2.5,2.5,0,0,0,0-5ZM33.05,5.22H53v5.06h-20Z"
          transform="translate(0 -0.22)"/>
    <path fill="#FFFFFF" d="M21,86.41a2.5,2.5,0,0,1-2.5-2.5V33.28a2.5,2.5,0,0,1,5,0V83.91A2.5,2.5,0,0,1,21,86.41Z"
          transform="translate(0 -0.22)"/>
    <path fill="#FFFFFF" d="M43,86.41a2.5,2.5,0,0,1-2.5-2.5V33.28a2.5,2.5,0,0,1,5,0V83.91A2.5,2.5,0,0,1,43,86.41Z"
          transform="translate(0 -0.22)"/>
    <path fill="#FFFFFF" d="M65,86.41a2.5,2.5,0,0,1-2.5-2.5V33.28a2.5,2.5,0,0,1,5,0V83.91A2.5,2.5,0,0,1,65,86.41Z"
          transform="translate(0 -0.22)"/>
</svg>