<svg xmlns="http://www.w3.org/2000/svg" viewBox="0 0 100 100">
    <defs>
        <style>.svg-truck-cls-1 {
            fill: #6433d7;
        }</style>
    </defs>
    <path class="svg-truck-cls-1 svg-fill"
          d="M98.52,47.77a.17.17,0,0,1,0-.1,1.7,1.7,0,0,0-.15-.45v-.09a2.71,2.71,0,0,0-.24-.35v-.05L79.39,26.39A1.89,1.89,0,0,0,78,25.78H67.58V20.09a1.9,1.9,0,0,0-1.9-1.89H3.35a1.89,1.89,0,0,0-1.89,1.89V68.35a1.89,1.89,0,0,0,1.89,1.89H11v.62a11,11,0,0,0,21.89,0v-.62H70.35v.62a11,11,0,0,0,21.89,0v-.62h4.47a1.89,1.89,0,0,0,1.89-1.89V48A1.55,1.55,0,0,0,98.52,47.77ZM22,78a7.16,7.16,0,0,1-7.15-7.15v-.62h0a7.15,7.15,0,0,1,14.24,0h0v.62A7.17,7.17,0,0,1,22,78Zm59.32,0a7.16,7.16,0,0,1-7.16-7.15v-.62a7.15,7.15,0,0,1,14.25,0v.62A7.17,7.17,0,0,1,81.27,78ZM91,46.1H68.21a.63.63,0,0,1-.63-.63V30.2a.63.63,0,0,1,.63-.63h8.68a.63.63,0,0,1,.46.2l14,15.29a.62.62,0,0,1,0,.89.64.64,0,0,1-.39.16Z"/>
</svg>