<?xml version="1.0" encoding="UTF-8"?>
<svg id="Calque_1" data-name="Calque 1" xmlns="http://www.w3.org/2000/svg" viewBox="0 0 108 99.23">
  <defs>
    <style>
      .cls-1 {
        fill: #666;
      }
    </style>
  </defs>
  <path class="cls-1" d="M40,37.44h6.64c1.1,0,2-.9,2-2s-.9-2-2-2h-6.64c-1.1,0-2,.9-2,2s.9,2,2,2Z"/>
  <path class="cls-1" d="M80.34,33.44c-1.1,0-2,.9-2,2s.9,2,2,2h6.64c1.1,0,2-.9,2-2s-.9-2-2-2h-6.64Z"/>
  <path class="cls-1" d="M46.64,73.54h-6.64c-1.1,0-2,.9-2,2s.9,2,2,2h6.64c1.1,0,2-.9,2-2s-.9-2-2-2Z"/>
  <path class="cls-1" d="M86.98,73.54h-6.64c-1.1,0-2,.9-2,2s.9,2,2,2h6.64c1.1,0,2-.9,2-2s-.9-2-2-2Z"/>
  <path class="cls-1" d="M102.5,71.01c-1.1,0-2,.9-2,2v8.19h-4.16V43.11c0-.06-.01-.12-.02-.18,0-.06,.02-.12,.02-.18V3.01c0-1.27-1.03-2.3-2.3-2.3H54.3c-.1,0-.2,.02-.3,.03-.1-.01-.2-.03-.3-.03H13.96c-1.27,0-2.3,1.03-2.3,2.3V42.75c0,.06,.01,.12,.02,.18,0,.06-.02,.12-.02,.18v38.09H7.5v-8.19c0-1.1-.9-2-2-2s-2,.9-2,2v23.51c0,1.1,.9,2,2,2H102.5c1.1,0,2-.9,2-2v-23.51c0-1.1-.9-2-2-2ZM15.66,45.05h11.07v9.17c0,1.1,.9,2,2,2h9.7c1.1,0,2-.9,2-2v-9.17h11.57v36.09H15.66V45.05Zm15.07,0h5.7v7.17h-5.7v-7.17Zm40.34,0h5.7v7.17h-5.7v-7.17Zm-15.07,36.09V45.05h11.07v9.17c0,1.1,.9,2,2,2h9.7c1.1,0,2-.9,2-2v-9.17h11.57v36.09H56Zm-10.66,4.05v9.32H20.82v-9.32h24.52Zm41.84,0v9.32h-24.52v-9.32h24.52Zm5.16-44.39H56V4.71h11.07V14.13c0,1.1,.9,2,2,2h9.7c1.1,0,2-.9,2-2V4.71h11.57V40.81ZM76.77,4.71v7.41h-5.7V4.71h5.7Zm-40.34,0v7.41h-5.7V4.71h5.7Zm-9.7,0V14.13c0,1.1,.9,2,2,2h9.7c1.1,0,2-.9,2-2V4.71h11.57V40.81H15.66V4.71h11.07ZM7.5,94.52v-9.32h9.32v9.32H7.5Zm41.84,0v-9.32h9.32v9.32h-9.32Zm51.16,0h-9.32v-9.32h9.32v9.32Z"/>
</svg>