<svg id="Calque_1" data-name="Calque 1" xmlns="http://www.w3.org/2000/svg" viewBox="0 0 108 99.23">
    <defs>
        <style>.svg-ungroup-cls-1 {
            fill: #5E1A52;
        }</style>
    </defs>
    <path class="svg-ungroup-cls-1 svg-fill"
          d="M92.36,87.38H23.54a8.54,8.54,0,0,0-5.45-6.06V18.78A2,2,0,0,0,17,17L4,10.5a2,2,0,1,0-1.79,3.58L14.09,20V80.93a8.48,8.48,0,1,0,9.42,10.45H90.36v4.43a2,2,0,0,0,4,0V89.38A2,2,0,0,0,92.36,87.38ZM15.28,93.81a4.49,4.49,0,1,1,4.49-4.49A4.49,4.49,0,0,1,15.28,93.81Z"/>
    <path class="svg-ungroup-cls-1 svg-fill"
          d="M66.34,40.87H38.27a2.3,2.3,0,0,0-2.3,2.3V71.24a2.3,2.3,0,0,0,2.3,2.29H66.34a2.3,2.3,0,0,0,2.29-2.29V43.17A2.3,2.3,0,0,0,66.34,40.87Zm-13.46,4V49h-1.5V44.87ZM64.63,69.53H40V44.87h7.41V51a2,2,0,0,0,2,2h5.5a2,2,0,0,0,2-2V44.87h7.75Z"/>
    <path class="svg-ungroup-cls-1 svg-fill" d="M56.69,64.13a2,2,0,0,0,0,4h4.72a2,2,0,0,0,0-4Z"/>
    <path class="svg-ungroup-cls-1 svg-fill"
          d="M104.58,40.87H76.52a2.3,2.3,0,0,0-2.3,2.3V71.24a2.3,2.3,0,0,0,2.3,2.29h28.06a2.3,2.3,0,0,0,2.3-2.29V43.17A2.3,2.3,0,0,0,104.58,40.87Zm-13.45,4V49H89.62V44.87Zm11.75,24.66H78.22V44.87h7.4V51a2,2,0,0,0,2,2h5.51a2,2,0,0,0,2-2V44.87h7.75Z"/>
    <path class="svg-ungroup-cls-1 svg-fill" d="M94.93,64.13a2,2,0,0,0,0,4h4.72a2,2,0,0,0,0-4Z"/>
    <path class="svg-ungroup-cls-1 svg-fill"
          d="M38.1,34.08H66.16a2.3,2.3,0,0,0,2.3-2.3V3.72a2.3,2.3,0,0,0-2.3-2.3H38.1a2.3,2.3,0,0,0-2.3,2.3V31.78A2.3,2.3,0,0,0,38.1,34.08ZM52.7,5.42V9.53H51.2V5.42Zm-12.9,0h7.4v6.11a2,2,0,0,0,2,2h5.5a2,2,0,0,0,2-2V5.42h7.76V30.08H39.8Z"/>
    <path class="svg-ungroup-cls-1 svg-fill" d="M61.23,24.67H56.51a2,2,0,0,0,0,4h4.72a2,2,0,1,0,0-4Z"/>
    <path class="svg-ungroup-cls-1 svg-fill"
          d="M104.58,1.42H76.52a2.3,2.3,0,0,0-2.3,2.3V31.78a2.3,2.3,0,0,0,2.3,2.3h28.06a2.3,2.3,0,0,0,2.3-2.3V3.72A2.3,2.3,0,0,0,104.58,1.42Zm-13.45,4V9.53H89.62V5.42Zm11.75,24.66H78.22V5.42h7.4v6.11a2,2,0,0,0,2,2h5.51a2,2,0,0,0,2-2V5.42h7.75Z"/>
    <path class="svg-ungroup-cls-1 svg-fill" d="M94.93,24.67a2,2,0,0,0,0,4h4.72a2,2,0,0,0,0-4Z"/>
    <path class="svg-ungroup-cls-1 svg-fill"
          d="M23.78,78.88a1.42,1.42,0,0,0,.87-.29,9.57,9.57,0,0,0,3.94-7.22l.17,0,.24,0a1.51,1.51,0,0,0,1.35-2.16L28.76,66h0a1,1,0,0,0-.17-.27s0,0-.07-.07a1.29,1.29,0,0,0-.17-.16l-.09-.07-.19-.1-.11,0a.79.79,0,0,0-.22-.06l-.08,0h-.06a1.38,1.38,0,0,0-.64.07h0a.84.84,0,0,0-.27.13l-.06,0a1.18,1.18,0,0,0-.21.18l0,0L23.82,68.2a1.5,1.5,0,0,0,.83,2.53l1,.16a6.8,6.8,0,0,1-2.73,5.27,1.5,1.5,0,0,0,.88,2.72Z"/>
    <path class="svg-ungroup-cls-1 svg-fill"
          d="M26.18,81.32a1.5,1.5,0,0,0,1.75,2.43,6.78,6.78,0,0,1,5.86-.93l-.15,1a1.5,1.5,0,0,0,.58,1.45,1.54,1.54,0,0,0,1.56.14L39,83.8l0,0a1.1,1.1,0,0,0,.21-.14l.08-.06a1.54,1.54,0,0,0,.17-.19l0,0a1.46,1.46,0,0,0,.17-.3h0a1.43,1.43,0,0,0,.09-.27v0a0,0,0,0,0,0,0V82.6a.81.81,0,0,0,0-.22.49.49,0,0,0,0-.12,1.55,1.55,0,0,0,0-.21.36.36,0,0,0,0-.11,1,1,0,0,0-.09-.21l-.05-.09a2.43,2.43,0,0,0-.2-.25h0l-2.58-2.53a1.5,1.5,0,0,0-2.53.83l0,.17A9.6,9.6,0,0,0,26.18,81.32Z"/>
</svg>
