<?xml version="1.0" encoding="utf-8"?>
<!-- Generator: Adobe Illustrator 26.3.1, SVG Export Plug-In . SVG Version: 6.00 Build 0)  -->
<svg version="1.1" xmlns="http://www.w3.org/2000/svg" xmlns:xlink="http://www.w3.org/1999/xlink" x="0px" y="0px"
	 viewBox="0 0 100 100" style="enable-background:new 0 0 100 100;" xml:space="preserve">
<style type="text/css">
	.svg-warning-white-st0{fill:#FFFFFF;}
</style>
<g>
	<path class="svg-warning-white-st0" d="M97.8,74.9L62.6,10.2c-4.1-6.9-13.1-9.2-20-5.1c-2.1,1.2-3.9,3-5.1,5.1L2.2,74.9c-4.1,6.9-1.8,15.9,5.1,20
		c2.3,1.3,4.8,2,7.4,2h70.6c8.1-0.1,14.6-6.7,14.5-14.7C99.8,79.7,99.1,77.1,97.8,74.9z M44.1,32.7c0-3.2,2.6-5.9,5.8-5.9
		s5.9,2.6,5.9,5.9l0,0v29.2c0,3.2-2.6,5.8-5.9,5.8c-3.2,0-5.8-2.6-5.8-5.8V32.7z M50,85.3c-3.2,0-5.9-2.6-5.9-5.8s2.6-5.8,5.8-5.8
		s5.9,2.6,5.9,5.8l0,0C55.8,82.7,53.2,85.3,50,85.3z"/>
</g>
</svg>
