<?xml version="1.0" encoding="utf-8"?>
<!-- Generator: Adobe Illustrator 21.0.0, SVG Export Plug-In . SVG Version: 6.00 Build 0)  -->
<svg version="1.1" id="Calque_1" xmlns="http://www.w3.org/2000/svg" xmlns:xlink="http://www.w3.org/1999/xlink" x="0px" y="0px"
	 viewBox="0 0 104.6 68" style="enable-background:new 0 0 104.6 68;" xml:space="preserve">
<style type="text/css">
	.st0{fill:#DF0026;}
	.st1{fill:#DF0026;stroke:#DF0026;stroke-width:1.1938;stroke-miterlimit:10;}
	.st2{fill:#030F4C;stroke:#FFFFFF;stroke-width:2.0294;stroke-linecap:round;stroke-linejoin:round;}
	.st3{fill:none;stroke:#FFFFFF;stroke-width:2.0294;stroke-linecap:round;stroke-linejoin:round;}
	.st4{fill:#FFFFFF;}
</style>
<g>
	<g>
		<path class="st0" d="M0,2.5h16.5v3.7H0V2.5z M16.3,11.7v3.5H3.6v8.3H0V11.7H16.3z"/>
	</g>
	<path class="st0" d="M44.8,0v23.6h-3.3V0H44.8z"/>
	<path class="st0" d="M79.7,7.1l5,16.4H81L76,7.1H79.7z"/>
	<path class="st0" d="M89.8,7.1l-5,16.4h-3.7l5-16.4H89.8z"/>
	<path class="st0" d="M89.8,7.1l5,16.4h-3.7l-5-16.4H89.8z"/>
	<path class="st0" d="M104.6,7.1l-5,16.4h-3.7l5-16.4H104.6z"/>
	<path class="st0" d="M52.8,0v23.6h-3.3V0H52.8z"/>
	<path class="st0" d="M18.3,15.3c0-2.6,0.9-4.8,2.8-6.7c1.9-1.9,4.2-2.8,6.8-2.8c2.6,0,4.9,0.9,6.7,2.8c1.9,1.9,2.8,4.1,2.8,6.8
		c0,2.6-0.9,4.9-2.8,6.7c-1.9,1.9-4.2,2.8-6.9,2.8c-2.4,0-4.5-0.8-6.4-2.5C19.3,20.6,18.3,18.3,18.3,15.3z M21.1,15.3
		c0,2,0.7,3.7,2,5c1.4,1.3,2.9,2,4.7,2c1.9,0,3.6-0.7,4.9-2s2-3,2-4.9c0-2-0.7-3.6-2-4.9s-2.9-2-4.8-2s-3.5,0.7-4.8,2
		C21.7,11.8,21.1,13.4,21.1,15.3z"/>
	<path class="st0" d="M56.8,15.3c0-2.3,0.9-4.3,2.6-6s3.8-2.5,6.2-2.5c2.4,0,4.4,0.8,6.1,2.5s2.5,3.7,2.5,6.1s-0.9,4.4-2.6,6.1
		S67.8,24,65.4,24c-2.1,0-4.1-0.7-5.8-2.2C57.8,20.1,56.8,18,56.8,15.3z M60,15.4c0,1.6,0.5,3,1.6,4c1.1,1.1,2.3,1.6,3.8,1.6
		s2.9-0.5,3.9-1.6c1.1-1.1,1.6-2.4,1.6-4s-0.5-2.9-1.6-4c-1-1.1-2.3-1.6-3.9-1.6c-1.5,0-2.8,0.5-3.9,1.6C60.6,12.5,60,13.8,60,15.4z
		"/>
	<path class="st1" d="M23.6,15.4c0-1.2,0.4-2.1,1.3-3c0.8-0.8,1.9-1.2,3-1.2c1.2,0,2.2,0.4,3,1.3c0.8,0.8,1.3,1.8,1.3,3
		s-0.4,2.2-1.3,3c-0.8,0.8-1.9,1.2-3.1,1.2c-1.1,0-2-0.4-2.8-1.1C24.1,17.7,23.6,16.7,23.6,15.4z M24.9,15.4c0,0.9,0.3,1.6,0.9,2.2
		s1.3,0.9,2.1,0.9c0.9,0,1.6-0.3,2.2-0.9s0.9-1.3,0.9-2.2c0-0.9-0.3-1.6-0.9-2.2s-1.3-0.9-2.2-0.9c-0.9,0-1.6,0.3-2.2,0.9
		C25.1,13.8,24.9,14.5,24.9,15.4z"/>
	<g>
		<path class="st2" d="M36.6,48.9c-1-1.1-1.7-8.4-11.2-10.8c-4.6-1.2-0.2-5.8,5.5-3.7l-3.9-15c0,0-0.6-2.5,1.6-3
			c2.2-0.6,3,1.4,3,1.6c0.1,0.2,1.8,6.8,1.8,6.8s0.3-1.8,1.9-2.2c1.6-0.4,2.6,0.7,2.9,2c-0.3-1.2,3.3-3.5,4.9,0.2
			c0.8-1.7,3.7-2.1,4.3,0.2c0.4,1.6,1.1,2.9,1.8,7.1"/>
		<line class="st3" x1="33.4" y1="24.8" x2="34.5" y2="28.9"/>
		<line class="st3" x1="38.2" y1="24.5" x2="39.2" y2="28.3"/>
		<line class="st3" x1="43.2" y1="24.7" x2="43.9" y2="27.5"/>
	</g>
	<g>
		<path class="st4" d="M71.8,62.9C68.4,65.6,61.6,68,56,68c-10.8,0-19.5-7-19.5-18.8c0-11.9,8.7-18.9,19.5-18.9
			c5.9,0,10.7,2,14.4,4.9L66.3,42c-2.7-2.2-6-3.4-10.1-3.4c-5.9,0-10.3,3.8-10.3,10.6c0,6.6,4.5,10.5,10.8,10.5
			c2.4,0,4.7-0.6,6.6-1.6v-5.4h-8.8v-6.9h17.3V62.9z"/>
	</g>
	<g>
		<path class="st4" d="M92.8,38.7v28.7h-9.1V38.7H72.4v-7.9h31.2v7.9H92.8z"/>
	</g>
</g>
</svg>
